<?xml version="1.0" encoding="UTF-8"?>

<!DOCTYPE svg PUBLIC "-//W3C//DTD SVG 1.1//EN" "http://www.w3.org/Graphics/SVG/1.1/DTD/svg11.dtd">
<svg version="1.1" xmlns="http://www.w3.org/2000/svg" width="1920"
     height="1080" viewport="0 0 1920 1080" stroke-width="1" stroke="#000000"
     fill="none">
  <g id="Mapping Layer">
    <polygon id="Slice 16" points="1279.41,633.467,1422.34,547.609,1318.69,735.983,1193.42,786.49"/>
    <polygon id="Slice 15" points="1227.92,466.481,1359.72,342.463,1412.36,561.635,1278.69,633.776"/>
    <polygon id="Slice 14" points="1195.75,337.666,1363.98,354.892,1233.07,466.682,1097.57,437.4"/>
    <polygon id="Slice 13" points="1088.92,440.207,1224.73,466.797,1269.39,633.785,1157.6,606.061"/>
    <polygon id="Slice 12" points="1153.62,602.349,1273.75,636.73,1202.75,786.31,1085.85,752.999"/>
    <polygon id="Slice 11" points="1152.14,603.849,1014.36,660.823,949.801,789.536,1087.78,746.645"/>
    <polygon id="Slice 10" points="1080.74,447.48,1157.12,601.44,1015.73,656.963,946.282,527.29"/>
    <polygon id="Slice 9" points="913.843,602.54,941.856,518.265,941.856,518.265,979.086,587.151,1016.98,650.544,1016.98,650.544,980.938,724.658,944.592,787.948,944.592,787.948,911.443,729.013,884.13,669.144,884.13,669.144"/>
    <polygon id="Slice 8" points="743.532,613.226,882.76,672.411,938.647,793.515,808.099,749.556"/>
    <polygon id="Slice 7" points="791.673,454.089,945.476,514.27,880.444,667.787,736.161,602.351"/>
    <polygon id="Slice 6" points="933.843,364.679,1083.34,438.66,943.357,523.551,796.729,446.705"/>
    <polygon id="Slice 5" points="656,472,797.928,444.779,736.226,602.964,625.149,642.888"/>
    <polygon id="Slice 4" points="616.343,647.648,733.806,600.672,812.882,745.377,709.936,792.354"/>
    <polygon id="3" points="480.992,560.916,623.353,642.164,699.454,782.366,589.605,742.668"/>
    <polygon id="2" points="661.262,480.827,628.621,646.357,481.181,574.297,502.065,373.606"/>
    <polygon id="C1-LH" points="673.206,352.547,797.708,442.235,658.145,473.869,510.539,376.862"/>
  </g>
</svg>
