<?xml version="1.0" encoding="UTF-8"?>

<!DOCTYPE svg PUBLIC "-//W3C//DTD SVG 1.1//EN" "http://www.w3.org/Graphics/SVG/1.1/DTD/svg11.dtd">
<svg version="1.1" xmlns="http://www.w3.org/2000/svg" width="1920"
     height="1080" viewport="0 0 1920 1080" stroke-width="1" stroke="#000000"
     fill="none">
  <g id="Screen 1">
    <polygon id="Slice 16" points="1440,805.184,1920,805.184,1920,1072,1440,1072"/>
    <polygon id="Slice 15" points="1440,538.369,1920,538.369,1920,805.184,1440,805.184"/>
    <polygon id="Slice 14" points="1440,271.553,1920,271.553,1920,538.369,1440,538.369"/>
    <polygon id="Slice 13" points="1440,4.73753,1920,4.73753,1920,271.553,1440,271.553"/>
    <polygon id="Slice 12" points="960,800.447,1440,800.447,1440,1067.26,960,1067.26"/>
    <polygon id="Slice 11" points="960,538.369,1440,538.369,1440,805.184,960,805.184"/>
    <polygon id="Slice 10" points="960,271.553,1440,271.553,1440,538.369,960,538.369"/>
    <polygon id="Slice 9" points="960,4.73753,1440,4.73753,1440,271.553,960,271.553"/>
    <polygon id="Slice 8" points="480,800.447,960,800.447,960,1067.26,480,1067.26"/>
    <polygon id="Slice 7" points="480,533.631,960,533.631,960,800.447,480,800.447"/>
    <polygon id="Slice 6" points="480,266.816,960,266.816,960,533.631,480,533.631"/>
    <polygon id="Slice 5" points="480,0,960,0,960,266.816,480,266.816"/>
    <polygon id="Slice 4" points="0,800.447,480,800.447,480,1067.26,0,1067.26"/>
    <polygon id="Slice 2" points="0,533.631,480,533.631,480,800.447,0,800.447"/>
    <polygon id="Slice 3" points="0,266.816,480,266.816,480,533.631,0,533.631"/>
    <polygon id="Slice 1" points="0.00012207,3.01577e-005,480,3.01577e-005,480,266.816,0.00012207,266.816"/>
  </g>
</svg>
