<?xml version="1.0" encoding="UTF-8"?>

<!DOCTYPE svg PUBLIC "-//W3C//DTD SVG 1.1//EN" "http://www.w3.org/Graphics/SVG/1.1/DTD/svg11.dtd">
<svg version="1.1" xmlns="http://www.w3.org/2000/svg" width="1920"
     height="1080" viewport="0 0 1920 1080" stroke-width="1" stroke="#000000"
     fill="none">
  <g id="Template(Unused.)">
    <polygon id="LR1" points="1680,402.603,1920,402.603,1920,537.603,1680,537.603"/>
    <polygon id="MR1" points="1680,267.603,1920,267.603,1920,402.603,1680,402.603"/>
    <polygon id="HR1" points="1680,132.603,1920,132.603,1920,267.603,1680,267.603"/>
    <polygon id="MR2" points="1680,-2.39703,1920,-2.39703,1920,132.603,1680,132.603"/>
    <polygon id="LR2" points="1440,400.206,1680,400.206,1680,535.206,1440,535.206"/>
    <polygon id="LR3" points="1440,267.603,1680,267.603,1680,402.603,1440,402.603"/>
    <polygon id="MR3" points="1440,130.206,1680,130.206,1680,265.206,1440,265.206"/>
    <polygon id="MC" points="1440,-2.39697,1680,-2.39697,1680,132.603,1440,132.603"/>
    <polygon id="LL3" points="1200,400.206,1440,400.206,1440,535.206,1200,535.206"/>
    <polygon id="ML3" points="1200,265.206,1440,265.206,1440,400.206,1200,400.206"/>
    <polygon id="HC" points="1200,130.206,1440,130.206,1440,265.206,1200,265.206"/>
    <polygon id="ML2" points="1200,-4.794,1440,-4.794,1440,130.206,1200,130.206"/>
    <polygon id="LL2" points="960,400.206,1200,400.206,1200,535.206,960,535.206"/>
    <polygon id="LL1" points="960,265.206,1200,265.206,1200,400.206,960,400.206"/>
    <polygon id="ML1" points="960,130.206,1200,130.206,1200,265.206,960,265.206"/>
    <polygon id="HL1" points="960,-4.79405,1200,-4.79405,1200,130.206,960,130.206"/>
  </g>
  <g id="LED Output">
    <polygon id="Slice 1" points="0,-2.39703,1920,-2.39703,1920,1080,0,1080"/>
    <polygon id="Slice 2" points="0,0,1920,0,1920,1080,0,1080"/>
  </g>
  <g id="Oneimage">
    <polygon id="Content4(yellow)" points="0,0,960,0,960,540,0,540"/>
    <polygon id="Content3(Cyan)" points="0,540,960,540,960,1080,0,1080"/>
    <polygon id="Content2(Green)" points="960,540,1920,540,1920,1080,960,1080"/>
    <polygon id="Content1(Purple)" points="960,0,1920,0,1920,535.206,960,535.206"/>
  </g>
  <g id="SmallImages">
    <polygon id="C1-LR1" points="1680,403.505,1920,403.505,1920,538.804,1680,538.804"/>
    <polygon id="C1-MR1" points="1680,268.206,1920,268.206,1920,403.505,1680,403.505"/>
    <polygon id="C1-HR1" points="1680,132.907,1920,132.907,1920,268.206,1680,268.206"/>
    <polygon id="C1-MR2" points="1680.09,-2.39172,1920,-2.39172,1920,132.907,1680.09,132.907"/>
    <polygon id="C1-LR2" points="1440.03,401.029,1680.02,401.071,1680,535.318,1440.01,535.277"/>
    <polygon id="C1-LR3" points="1440,268.206,1680,268.206,1680,403.505,1440,403.505"/>
    <polygon id="C1-MR3" points="1440,130.505,1680,130.505,1680,265.804,1440,265.804"/>
    <polygon id="C1-MC" points="1440,-2.39172,1680,-2.39172,1680,132.907,1440,132.907"/>
    <polygon id="C1-LL3" points="1200,401.103,1440,401.103,1440,536.402,1200,536.402"/>
    <polygon id="C1-ML3" points="1200,265.804,1440,265.804,1440,401.103,1200,401.103"/>
    <polygon id="C1-HC" points="1200,130.505,1440,130.505,1440,265.804,1200,265.804"/>
    <polygon id="C1-ML2" points="1199.97,-2.34749,1440,-2.34749,1440,128.802,1199.97,128.802"/>
    <polygon id="C1-LL2" points="960,401.103,1200,401.103,1200,538.88,960,538.88"/>
    <polygon id="C1-LL1" points="960,265.804,1200,265.804,1200,401.103,960,401.103"/>
    <polygon id="C1-ML1" points="960,132.907,1200,132.907,1200,265.804,960,265.804"/>
    <polygon id="C1-HL1" points="960,-4.79407,1200,-4.79407,1200,130.505,960,130.505"/>
  </g>
  <g id="Precompose">
    <polygon id="OneImage" points="0,-4.79401,1920,-4.79401,1920,1080,0,1080"/>
    <polygon id="SmallImages" points="0,0,1920,0,1920,1080,0,1080"/>
  </g>
  <g id="Projector output">
    <polygon id="Precompose_Out" points="0,0,1920,0,1920,1080,0,1080"/>
  </g>
  <g id="LEDStrip1">
    <polygon id="1 - 63 S1-1-21" points="705.134,916.25,480.314,1013.27,473.342,997.116,698.162,900.095"/>
    <polygon id="64 - 120 S1-2" points="467.199,1014.66,228.893,927.583,235.51,909.475,473.816,996.553"/>
    <polygon id="121 - 192 S1-3-21" points="219.426,916.58,5.82498,553.783,21.9474,544.291,235.549,907.088"/>
    <polygon id="193 - 264 S1-4" points="-0.141197,539.82,78.7465,83.6471,95.9232,86.6175,17.0354,542.79"/>
    <polygon id="265 - 327 S1-5" points="91.463,68.5944,426.248,8.96102,429.662,28.1265,94.8768,87.7598"/>
    <polygon id="328 - 384 S1-6" points="439.332,16.4956,661.756,237.752,648.722,250.855,426.298,29.5984"/>
  </g>
  <g id="LEDStrip2A">
    <polygon id="1 - 63 S2-1" points="376.89,324.766,97.0634,100.322,108.768,85.7295,388.595,310.173"/>
    <polygon id="64 - 126 S2-2" points="19.472,537.855,335.126,692.148,326.726,709.334,11.0716,555.041"/>
    <polygon id="127 - 183 S2-3" points="332.812,691.073,530.231,610.268,537.517,628.07,340.098,708.875"/>
    <polygon id="184 - 264 S2-4" points="564.933,615.235,835.467,725.966,828.178,743.774,557.644,633.043"/>
    <polygon id="265 - 345 S2-5" points="1080.47,719.062,1357.67,611.767,1364.62,629.728,1087.42,737.023"/>
    <polygon id="346 - 402 S2-6" points="1368.44,611.746,1592.5,693.607,1585.89,711.716,1361.82,629.855"/>
    <polygon id="403 - 465 S2-7" points="1593.35,694.883,1890.09,509.964,1900.11,526.042,1603.37,710.961"/>
    <polygon id="466 - 510 S2-8A" points="1854.79,57.5234,1623.43,257.102,1611.25,242.981,1842.61,43.4027"/>
  </g>
  <g id="LEDStrip2B">
    <polygon id="1 - 18 S2-8B" points="1625.04,255.73,1541.04,328.189,1528.87,314.081,1612.87,241.622"/>
  </g>
  <g id="LEDStrip3">
    <polygon id="1 - 78 S3-6" points="965.779,1060.13,1064.19,729.213,1081.04,734.226,982.636,1065.14"/>
    <polygon id="79 - 150 S3-5" points="1061.49,729.93,956.383,458.076,972.862,451.705,1077.97,723.559"/>
    <polygon id="151 - 210 S3-4" points="935.582,443.914,670.76,265.004,681.324,249.369,946.145,428.279"/>
    <polygon id="211 - 288 S3-3" points="651.984,267.242,408.367,327.995,403.671,309.164,647.288,248.411"/>
    <polygon id="289 - 360 S3-2" points="386.326,326.91,352.654,687.253,335.349,685.636,369.021,325.293"/>
    <polygon id="361 - 438 S3-1" points="354.326,704.893,469.458,988.98,453.035,995.635,337.904,711.548"/>
  </g>
  <g id="LEDStrip4a">
    <polygon id="1 - 78 S4-1" points="938.552,1079.69,700.143,918.621,710.706,902.985,949.115,1064.05"/>
    <polygon id="79 - 153 S4-2" points="690.577,903.37,546.181,638.398,561.886,629.839,706.281,894.812"/>
    <polygon id="154 - 231 S4-3" points="540.566,569.256,648.232,245.433,664.94,250.988,557.273,574.811"/>
    <polygon id="232 - 306 S4-4" points="671.115,241.5,941.114,62.6602,951.554,78.4229,681.556,257.262"/>
    <polygon id="307 - 381 S4-5" points="959.453,62.7879,1233.75,244.474,1223.31,260.237,949.012,78.5506"/>
    <polygon id="382 - 459 S4-6" points="1251.39,266.798,1367.88,607.995,1351.23,613.682,1234.74,272.484"/>
    <polygon id="460 - 510 S4-7A" points="1358.83,644.597,1258.76,843.494,1244.55,836.344,1344.62,637.448"/>
  </g>
  <g id="LEDStrip4b">
    <polygon id="1 - 24 S4-7B" points="1259.47,842.059,1217.39,925.695,1203.18,918.547,1245.26,834.911"/>
    <polygon id="25 - 102 S4-8" points="1208.23,936.466,987.132,1080.01,976.837,1064.15,1197.93,920.609"/>
  </g>
  <g id="LEDStrip5">
    <polygon id="1 - 78 S5-1" points="930.207,1068.27,824.221,740.298,840.941,734.895,946.927,1062.87"/>
    <polygon id="79 - 150 S5-2" points="825.96,724.989,941.377,458.418,957.636,465.457,842.219,732.029"/>
    <polygon id="151 - 210 S5-3" points="960.846,428.58,1229.23,257.536,1239.42,273.515,971.03,444.559"/>
    <polygon id="211 - 288 S5-4" points="1260.39,255.175,1504.41,311.106,1500.07,330.043,1256.05,274.112"/>
    <polygon id="289 - 360 S5-5" points="1543.93,329.614,1604.39,679.972,1587.23,682.933,1526.77,332.576"/>
    <polygon id="361 - 438 S5-6" points="1598.42,718.04,1450.17,1025.56,1434.39,1017.95,1582.64,710.432"/>
  </g>
  <g id="LEDStrip6">
    <polygon id="1 - 63 S6-1" points="1220.11,923.51,1428.15,1032.64,1420.02,1048.15,1211.97,939.021"/>
    <polygon id="64 - 120 S6-2" points="1438.29,1021.79,1668.1,912.08,1676.35,929.363,1446.55,1039.07"/>
    <polygon id="121 - 192 S6-3" points="1664.51,903.343,1885.1,535.372,1901.18,545.013,1680.6,912.984"/>
    <polygon id="193 - 264 S6-4" points="1902.77,508.953,1842.85,57.9636,1860.16,55.6635,1920.08,506.653"/>
    <polygon id="265 - 327 S6-5" points="1845.57,36.2422,1505.89,19.5521,1506.85,-2.28882e-005,1846.53,16.6901"/>
    <polygon id="328 - 384 S6-6" points="1481.83,22.0652,1258.38,252.43,1245.11,239.564,1468.57,9.19865"/>
  </g>
</svg>
