<?xml version="1.0" encoding="UTF-8"?>

<!DOCTYPE svg PUBLIC "-//W3C//DTD SVG 1.1//EN" "http://www.w3.org/Graphics/SVG/1.1/DTD/svg11.dtd">
<svg version="1.1" xmlns="http://www.w3.org/2000/svg" width="1920"
     height="1080" viewport="0 0 1920 1080" stroke-width="1" stroke="#000000"
     fill="none">
  <g id="Template(Unused.)">
    <polygon id="LR1" points="1680,402.603,1920,402.603,1920,537.603,1680,537.603"/>
    <polygon id="MR1" points="1680,267.603,1920,267.603,1920,402.603,1680,402.603"/>
    <polygon id="HR1" points="1680,132.603,1920,132.603,1920,267.603,1680,267.603"/>
    <polygon id="MR2" points="1680,-2.39703,1920,-2.39703,1920,132.603,1680,132.603"/>
    <polygon id="LR2" points="1440,400.206,1680,400.206,1680,535.206,1440,535.206"/>
    <polygon id="LR3" points="1440,267.603,1680,267.603,1680,402.603,1440,402.603"/>
    <polygon id="MR3" points="1440,130.206,1680,130.206,1680,265.206,1440,265.206"/>
    <polygon id="MC" points="1440,-2.39697,1680,-2.39697,1680,132.603,1440,132.603"/>
    <polygon id="LL3" points="1200,400.206,1440,400.206,1440,535.206,1200,535.206"/>
    <polygon id="ML3" points="1200,265.206,1440,265.206,1440,400.206,1200,400.206"/>
    <polygon id="HC" points="1200,130.206,1440,130.206,1440,265.206,1200,265.206"/>
    <polygon id="ML2" points="1200,-4.794,1440,-4.794,1440,130.206,1200,130.206"/>
    <polygon id="LL2" points="960,400.206,1200,400.206,1200,535.206,960,535.206"/>
    <polygon id="LL1" points="960,265.206,1200,265.206,1200,400.206,960,400.206"/>
    <polygon id="ML1" points="960,130.206,1200,130.206,1200,265.206,960,265.206"/>
    <polygon id="HL1" points="960,-4.79405,1200,-4.79405,1200,130.206,960,130.206"/>
  </g>
  <g id="LED Output">
    <polygon id="Slice 1" points="0,-2.39703,1920,-2.39703,1920,1080,0,1080"/>
    <polygon id="Slice 2" points="0,0,1920,0,1920,1080,0,1080"/>
  </g>
  <g id="Oneimage">
    <polygon id="Content4" points="0,0,960,0,960,540,0,540"/>
    <polygon id="Content3" points="960,540,1920,540,1920,1080,960,1080"/>
    <polygon id="Content2" points="0,540,960,540,960,1080,0,1080"/>
    <polygon id="Content1" points="960,0,1920,0,1920,535.206,960,535.206"/>
  </g>
  <g id="SmallImages">
    <polygon id="C1-LR1" points="1680,403.505,1920,403.505,1920,538.804,1680,538.804"/>
    <polygon id="C1-MR1" points="1680,268.206,1920,268.206,1920,403.505,1680,403.505"/>
    <polygon id="C1-HR1" points="1680,132.907,1920,132.907,1920,268.206,1680,268.206"/>
    <polygon id="C1-MR2" points="1680.09,-2.39172,1920,-2.39172,1920,132.907,1680.09,132.907"/>
    <polygon id="C1-LR2" points="1440.03,401.029,1680.02,401.071,1680,535.318,1440.01,535.277"/>
    <polygon id="C1-LR3" points="1440,268.206,1680,268.206,1680,403.505,1440,403.505"/>
    <polygon id="C1-MR3" points="1440,130.505,1680,130.505,1680,265.804,1440,265.804"/>
    <polygon id="C1-MC" points="1440,-2.39172,1680,-2.39172,1680,132.907,1440,132.907"/>
    <polygon id="C1-LL3" points="1200,401.103,1440,401.103,1440,536.402,1200,536.402"/>
    <polygon id="C1-ML3" points="1200,265.804,1440,265.804,1440,401.103,1200,401.103"/>
    <polygon id="C1-HC" points="1200,130.505,1440,130.505,1440,265.804,1200,265.804"/>
    <polygon id="C1-ML2" points="1199.97,-2.34749,1440,-2.34749,1440,128.802,1199.97,128.802"/>
    <polygon id="C1-LL2" points="960,401.103,1200,401.103,1200,538.88,960,538.88"/>
    <polygon id="C1-LL1" points="960,265.804,1200,265.804,1200,401.103,960,401.103"/>
    <polygon id="C1-ML1" points="960,132.907,1200,132.907,1200,265.804,960,265.804"/>
    <polygon id="C1-HL1" points="960,-4.79407,1200,-4.79407,1200,130.505,960,130.505"/>
  </g>
  <g id="Precompose">
    <polygon id="OneImage" points="0,-4.79401,1920,-4.79401,1920,1080,0,1080"/>
    <polygon id="Slice 1" points="0,0,1920,0,1920,1080,0,1080"/>
  </g>
  <g id="Projector output">
    <polygon id="Slice 1" points="0,0,1920,0,1920,1080,0,1080"/>
  </g>
  <g id="LEDStrip1">
    <polygon id="1 - 63 S1-1-21" points="469.048,554.549,340.235,604.002,336.952,595.451,465.765,545.998"/>
    <polygon id="64 - 120 S1-2" points="332.68,604.71,196.08,560.319,199.171,550.809,335.77,595.2"/>
    <polygon id="121 - 192 S1-3-21" points="189.905,554.446,67.4285,369.39,76.1126,363.642,198.589,548.699"/>
    <polygon id="193 - 264 S1-4" points="63.466,360.965,108.842,127.556,118.658,129.464,73.2822,362.873"/>
    <polygon id="265 - 327 S1-5" points="116.57,119.777,309.083,89.2867,310.647,99.1638,118.135,129.654"/>
    <polygon id="328 - 384 S1-6" points="316.616,93.1433,443.907,205.758,437.281,213.248,309.99,100.633"/>
  </g>
  <g id="LEDStrip2A">
    <polygon id="1 - 63 S2-1" points="280.643,251.128,120.33,136.768,126.137,128.627,286.451,242.987"/>
    <polygon id="64 - 126 S2-2" points="74.6862,360.344,255.721,439.059,251.734,448.23,70.6987,369.515"/>
    <polygon id="127 - 183 S2-3" points="256.015,438.589,369.002,397.465,372.423,406.863,259.435,447.986"/>
    <polygon id="184 - 264 S2-4" points="388.99,400.014,544.109,456.472,540.689,465.869,385.57,409.411"/>
    <polygon id="265 - 345 S2-5" points="686.81,452.965,845.79,398.225,849.046,407.68,690.066,462.42"/>
    <polygon id="346 - 402 S2-6" points="851.994,398.219,980.386,439.935,977.296,449.446,848.903,407.729"/>
    <polygon id="403 - 465 S2-7" points="982.52,440.317,1152.59,346.049,1157.43,354.796,987.368,449.063"/>
    <polygon id="466 - 510 S2-8A" points="1131.31,114.863,998.93,216.454,992.842,208.52,1125.23,106.93"/>
  </g>
  <g id="LEDStrip2B">
    <polygon id="1 - 18 S2-8B" points="998.93,216.454,951.454,252.887,945.365,244.953,992.842,208.52"/>
  </g>
  <g id="LEDStrip3">
    <polygon id="1 - 78 S3-6" points="620.177,627.407,676.69,458.422,686.186,461.598,629.673,630.583"/>
    <polygon id="79 - 150 S3-5" points="675.134,458.782,614.874,320.181,624.045,316.194,684.305,454.795"/>
    <polygon id="151 - 210 S3-4" points="602.572,312.198,450.911,221.062,456.062,212.49,607.723,303.626"/>
    <polygon id="211 - 288 S3-3" points="438.617,221.77,298.775,252.779,296.611,243.017,436.452,212.007"/>
    <polygon id="289 - 360 S3-2" points="286.054,252.448,266.671,436.912,256.725,435.867,276.108,251.403"/>
    <polygon id="361 - 438 S3-1" points="267.638,445.953,333.627,590.813,324.517,594.963,258.527,450.104"/>
  </g>
  <g id="LEDStrip4a">
    <polygon id="1 - 78 S4-1" points="604.284,638.041,467.842,556.051,472.993,547.479,609.435,629.469"/>
    <polygon id="79 - 153 S4-2" points="461.401,547.673,378.705,412.715,387.232,407.491,469.928,542.448"/>
    <polygon id="154 - 231 S4-3" points="375.201,375.778,437.008,210.477,446.375,213.98,384.568,379.28"/>
    <polygon id="232 - 306 S4-4" points="451.113,207.908,605.768,116.811,610.844,125.427,456.188,216.525"/>
    <polygon id="307 - 381 S4-5" points="616.319,116.876,773.451,209.432,768.376,218.049,611.243,125.493"/>
    <polygon id="382 - 459 S4-6" points="784.547,221.424,851.419,395.621,842.082,399.205,775.21,225.008"/>
    <polygon id="460 - 510 S4-7A" points="846.043,415.784,788.791,516.986,781.022,512.591,838.275,411.389"/>
  </g>
  <g id="LEDStrip4b">
    <polygon id="1 - 24 S4-7B" points="788.791,516.986,764.956,559.117,757.186,554.721,781.021,512.591"/>
    <polygon id="25 - 102 S4-8" points="758.748,565.175,632.274,638.202,627.274,629.541,753.747,556.514"/>
  </g>
  <g id="LEDStrip5">
    <polygon id="1 - 78 S5-1" points="599.478,632.191,538.638,464.745,548.035,461.331,608.875,628.777"/>
    <polygon id="79 - 150 S5-2" points="539.78,455.483,605.923,319.636,614.906,324.009,548.763,459.857"/>
    <polygon id="151 - 210 S5-3" points="618.063,303.822,771.782,216.676,776.718,225.383,622.998,312.528"/>
    <polygon id="211 - 288 S5-4" points="789.736,215.474,929.844,244.029,927.846,253.829,787.739,225.274"/>
    <polygon id="289 - 360 S5-5" points="953.113,253.618,987.881,432.795,978.071,434.698,943.303,255.522"/>
    <polygon id="361 - 438 S5-6" points="984.086,453.487,899.093,610.298,890.431,605.603,975.424,448.792"/>
  </g>
  <g id="LEDStrip6">
    <polygon id="1 - 63 S6-1" points="766.52,558.002,885.6,613.555,881.719,621.875,762.639,566.323"/>
    <polygon id="64 - 120 S6-2" points="893.092,608.016,1024.67,552.14,1028.58,561.348,897.003,617.224"/>
    <polygon id="121 - 192 S6-3" points="1023.21,546.766,1149.71,359.075,1158.37,364.91,1031.86,552.6"/>
    <polygon id="193 - 264 S6-4" points="1159.9,345.53,1125.41,114.697,1135.33,113.214,1169.82,344.048"/>
    <polygon id="265 - 327 S6-5" points="1126.93,103.26,931.314,94.7087,931.752,84.685,1127.37,93.236"/>
    <polygon id="328 - 384 S6-6" points="916.462,96.781,788.575,214.059,781.806,206.678,909.693,89.3995"/>
  </g>
</svg>
