<?xml version="1.0" encoding="UTF-8"?>

<!DOCTYPE svg PUBLIC "-//W3C//DTD SVG 1.1//EN" "http://www.w3.org/Graphics/SVG/1.1/DTD/svg11.dtd">
<svg version="1.1" xmlns="http://www.w3.org/2000/svg" width="1920"
     height="1080" viewport="0 0 1920 1080" stroke-width="1" stroke="#000000"
     fill="none">
  <g id="MappingTemplate">
    <polygon id="LR1-C1" points="1274.14,637.076,1422.34,547.608,1318.69,735.983,1202.89,786.202"/>
    <polygon id="MR1-C1" points="1229.03,467.593,1356.39,353.572,1421.81,547.737,1273.12,636.831"/>
    <polygon id="HR1-C1" points="1195.75,337.667,1356.2,353.506,1228.62,468.075,1085.28,438.261"/>
    <polygon id="MR2-C1" points="1087.22,439.783,1228.98,467.221,1271.52,635.914,1157.6,606.061"/>
    <polygon id="LR2-C1" points="1153.62,602.349,1273.75,636.73,1202.75,786.31,1085.85,752.999"/>
    <polygon id="LR3-C1" points="1156.45,601.633,1016.91,652.446,946.674,787.274,1086.78,751.239"/>
    <polygon id="MR-C1" points="1085,438.605,1157.12,601.441,1018.22,651.636,943.086,519.833"/>
    <polygon id="MC-C1" points="913.843,602.54,941.856,518.265,941.856,518.265,979.086,587.151,1016.98,650.544,1016.98,650.544,980.938,724.658,944.592,787.948,944.592,787.948,911.443,729.013,884.13,669.144,884.13,669.144"/>
    <polygon id="LL3-C1" points="738.564,604.709,880.278,668.152,944.669,787.85,808.1,749.556"/>
    <polygon id="ML3-C1" points="796.972,446.395,941.623,518.42,882.929,668.852,736.161,602.351"/>
    <polygon id="HC-C1" points="933.843,364.679,1083.34,438.66,944.066,519.288,796.729,446.705"/>
    <polygon id="ML2-C1" points="657.131,475.415,797.547,447.075,736.225,602.963,625.148,642.887"/>
    <polygon id="LL2-C1" points="624.522,643.029,736.651,603.518,808.266,750.704,700.703,782.058"/>
    <polygon id="LL1-C1" points="480.992,560.916,623.353,642.164,699.454,782.366,589.605,742.668"/>
    <polygon id="ML1-C1" points="657.813,474.326,626.456,643.836,481.183,561.005,502.066,373.607"/>
    <polygon id="HL1-C1" points="673.206,352.546,797.323,446.061,658.146,473.869,503.272,374.953"/>
  </g>
</svg>
