<?xml version="1.0" encoding="UTF-8"?>

<!DOCTYPE svg PUBLIC "-//W3C//DTD SVG 1.1//EN" "http://www.w3.org/Graphics/SVG/1.1/DTD/svg11.dtd">
<svg version="1.1" xmlns="http://www.w3.org/2000/svg" width="1920"
     height="1080" viewport="0 0 1920 1080" stroke-width="1" stroke="#000000"
     fill="none">
  <g id="Template(Keep Unused.)">
    <polygon id="LR1-C4" points="720,405,960,405,960,540,720,540"/>
    <polygon id="MR1-C4" points="720,270,960,270,960,405,720,405"/>
    <polygon id="HR1-C4" points="720,135,960,135,960,270,720,270"/>
    <polygon id="MR2-C4" points="720,0,960,0,960,135,720,135"/>
    <polygon id="LR2-C4" points="480,405,720,405,720,540,480,540"/>
    <polygon id="LR3-C4" points="480,270,720,270,720,405,480,405"/>
    <polygon id="MR3-C4" points="480,135,720,135,720,270,480,270"/>
    <polygon id="MC-C4" points="480,0,720,0,720,135,480,135"/>
    <polygon id="LL3-C4" points="240,405,480,405,480,540,240,540"/>
    <polygon id="ML3-C4" points="240,270,480,270,480,405,240,405"/>
    <polygon id="HC-C4" points="240,135,480,135,480,270,240,270"/>
    <polygon id="ML2-C4" points="240,0,480,0,480,135,240,135"/>
    <polygon id="LL2-C4" points="0,405,240,405,240,540,0,540"/>
    <polygon id="LL1-C4" points="0,270,240,270,240,405,0,405"/>
    <polygon id="ML1-C4" points="0,135,240,135,240,270,0,270"/>
    <polygon id="HL1-C4" points="0,0,240,0,240,135,0,135"/>
    <polygon id="LR1-C3" points="720,945,960,945,960,1080,720,1080"/>
    <polygon id="MR1-C3" points="720,810,960,810,960,945,720,945"/>
    <polygon id="HR1-C3" points="720,675,960,675,960,810,720,810"/>
    <polygon id="MR2-C3" points="720,540,960,540,960,675,720,675"/>
    <polygon id="LR2-C3" points="480,945,720,945,720,1080,480,1080"/>
    <polygon id="LR3-C3" points="480,810,720,810,720,945,480,945"/>
    <polygon id="MR3-C3" points="480,675,720,675,720,810,480,810"/>
    <polygon id="MC-C3" points="480,540,720,540,720,675,480,675"/>
    <polygon id="LL3-C3" points="240,945,480,945,480,1080,240,1080"/>
    <polygon id="ML3-C3" points="240,810,480,810,480,945,240,945"/>
    <polygon id="HC-C3" points="240,675,480,675,480,810,240,810"/>
    <polygon id="ML2-C3" points="240,540,480,540,480,675,240,675"/>
    <polygon id="LL2-C3" points="0,945,240,945,240,1080,0,1080"/>
    <polygon id="LL1-C3" points="0,810,240,810,240,945,0,945"/>
    <polygon id="ML1-C3" points="0,675,240,675,240,810,0,810"/>
    <polygon id="HL1-C3" points="0,540,240,540,240,675,0,675"/>
    <polygon id="LR1-C2" points="1680,945,1920,945,1920,1080,1680,1080"/>
    <polygon id="MR1-C2" points="1680,810,1920,810,1920,945,1680,945"/>
    <polygon id="HR1-C2" points="1680,675,1920,675,1920,810,1680,810"/>
    <polygon id="MR2-C2" points="1680,540,1920,540,1920,675,1680,675"/>
    <polygon id="LR2-C2" points="1440,945,1680,945,1680,1080,1440,1080"/>
    <polygon id="LR3-C2" points="1440,810,1680,810,1680,945,1440,945"/>
    <polygon id="MR3-C2" points="1440,675,1680,675,1680,810,1440,810"/>
    <polygon id="MC-C2" points="1440,540,1680,540,1680,675,1440,675"/>
    <polygon id="LL3-C2" points="1200,945,1440,945,1440,1080,1200,1080"/>
    <polygon id="ML3-C2" points="1200,810,1440,810,1440,945,1200,945"/>
    <polygon id="HC-C2" points="1200,675,1440,675,1440,810,1200,810"/>
    <polygon id="ML2-C2" points="1200,540,1440,540,1440,675,1200,675"/>
    <polygon id="LL2-C2" points="960,945,1200,945,1200,1080,960,1080"/>
    <polygon id="LL1-C2" points="960,810,1200,810,1200,945,960,945"/>
    <polygon id="ML1-C2" points="960,675,1200,675,1200,810,960,810"/>
    <polygon id="HL1-C2" points="960,540,1200,540,1200,675,960,675"/>
    <polygon id="LR1-C1" points="1680,405,1920,405,1920,540,1680,540"/>
    <polygon id="MR1-C1" points="1680,270,1920,270,1920,405,1680,405"/>
    <polygon id="HR1-C1" points="1680,135,1920,135,1920,270,1680,270"/>
    <polygon id="MR2-C1" points="1680,0,1920,0,1920,135,1680,135"/>
    <polygon id="LR2-C1" points="1440,405,1680,405,1680,540,1440,540"/>
    <polygon id="LR3-C1" points="1440,270,1680,270,1680,405,1440,405"/>
    <polygon id="MR3-C1" points="1440,135,1680,135,1680,270,1440,270"/>
    <polygon id="MC-C1" points="1440,0,1680,0,1680,135,1440,135"/>
    <polygon id="LL3-C1" points="1200,405,1440,405,1440,540,1200,540"/>
    <polygon id="ML3-C1" points="1200,270,1440,270,1440,405,1200,405"/>
    <polygon id="HC-C1" points="1200,135,1440,135,1440,270,1200,270"/>
    <polygon id="ML2-C1" points="1200,0,1440,0,1440,135,1200,135"/>
    <polygon id="LL2-C1" points="960,405,1200,405,1200,540,960,540"/>
    <polygon id="LL1-C1" points="960,270,1200,270,1200,405,960,405"/>
    <polygon id="ML1-C1" points="960,135,1200,135,1200,270,960,270"/>
    <polygon id="HL1-C1" points="960,0,1200,0,1200,135,960,135"/>
  </g>
  <g id="Oneimage">
    <polygon id="Content4(yellow)" points="0,0,960,0,960,540,0,540"/>
    <polygon id="Content3(Cyan)" points="0,540,960,540,960,1080,0,1080"/>
    <polygon id="Content2(Green)" points="960,540,1920,540,1920,1080,960,1080"/>
    <polygon id="Content1(Purple)" points="960,0,1920,0,1920,535.206,960,535.206"/>
  </g>
  <g id="Mapping1">
    <polygon id="LR1-C1" points="1439.93,809.937,1919.91,809.937,1919.91,1079.92,1439.93,1079.92"/>
    <polygon id="MR1-C1" points="1439.93,539.958,1919.91,539.958,1919.91,809.937,1439.93,809.937"/>
    <polygon id="HR1-C1" points="1439.93,269.979,1919.91,269.979,1919.91,539.958,1439.93,539.958"/>
    <polygon id="MR2-C1" points="1440.02,0,1920,0,1920,269.979,1440.02,269.979"/>
    <polygon id="LR2-C1" points="959.954,809.936,1439.91,810.02,1439.86,1080,959.906,1079.92"/>
    <polygon id="LR3-C1" points="959.955,539.958,1439.93,539.958,1439.93,809.937,959.955,809.937"/>
    <polygon id="MR-C1" points="959.955,269.979,1439.93,269.979,1439.93,539.958,959.955,539.958"/>
    <polygon id="MC-C1" points="959.955,0,1439.93,0,1439.93,269.979,959.955,269.979"/>
    <polygon id="LL3-C1" points="479.977,809.937,959.955,809.937,959.955,1079.92,479.977,1079.92"/>
    <polygon id="ML3-C1" points="479.977,539.958,959.955,539.958,959.955,809.937,479.977,809.937"/>
    <polygon id="HC-C1" points="479.977,269.979,959.955,269.979,959.955,539.958,479.977,539.958"/>
    <polygon id="ML2-C1" points="479.957,0,959.934,0,959.934,269.979,479.957,269.979"/>
    <polygon id="LL2-C1" points="1.52588e-005,809.937,479.978,809.937,479.978,1079.92,1.52588e-005,1079.92"/>
    <polygon id="LL1-C1" points="1.52588e-005,539.958,479.978,539.958,479.978,809.937,1.52588e-005,809.937"/>
    <polygon id="ML1-C1" points="1.52588e-005,269.979,479.978,269.979,479.978,539.958,1.52588e-005,539.958"/>
    <polygon id="HL1-C1" points="1.52588e-005,0,479.978,0,479.978,269.979,1.52588e-005,269.979"/>
  </g>
  <g id="Precompose">
    <polygon id="SmallImages" points="0,0,1920,0,1920,1080,0,1080"/>
    <polygon id="OneImage" points="0,-4.79401,1920,-4.79401,1920,1080,0,1080"/>
  </g>
  <g id="Projector output">
    <polygon id="Precompose_Out" points="0,0,1920,0,1920,1080,0,1080"/>
  </g>
  <g id="LEDStrip1">
    <polygon id="1 - 63 S1-1-21" points="801.837,748.295,707.289,778.802,705.538,773.375,800.086,742.868"/>
    <polygon id="64 - 120 S1-2" points="683.958,773.903,595.019,744.416,596.579,739.712,685.518,769.199"/>
    <polygon id="121 - 192 S1-3-21" points="587.691,739.072,494.327,580.432,499.911,577.145,593.276,735.786"/>
    <polygon id="193 - 264 S1-4" points="481.28,559.789,502.545,381.227,508.415,381.927,487.15,560.488"/>
    <polygon id="265 - 327 S1-5" points="514.876,372.464,667.779,353.202,668.465,358.641,515.561,377.902"/>
    <polygon id="328 - 384 S1-6" points="672.37,358.6,785.563,441.049,782.112,445.787,668.919,363.339"/>
  </g>
  <g id="LEDStrip2A">
    <polygon id="1 - 63 S2-1" points="646.158,479.371,512.229,393.877,515.287,389.086,649.216,474.581"/>
    <polygon id="64 - 126 S2-2" points="495.083,560.597,617.682,629.733,615.018,634.457,492.419,565.321"/>
    <polygon id="127 - 183 S2-3" points="638.84,628.262,726.961,595.525,729.129,601.361,641.007,634.097"/>
    <polygon id="184 - 264 S2-4" points="755.363,615.477,875.847,670.079,873.959,674.245,753.475,619.643"/>
    <polygon id="265 - 345 S2-5" points="1022.84,649.641,1145.38,606.608,1146.71,610.382,1024.16,653.415"/>
    <polygon id="346 - 402 S2-6" points="1167.4,591.45,1253.45,620.81,1251.56,626.333,1165.51,596.973"/>
    <polygon id="403 - 465 S2-7" points="1277.44,626.641,1406.61,545.96,1408.75,549.389,1279.58,630.07"/>
    <polygon id="466 - 510 S2-8A" points="1352.84,363.853,1273.2,439.59,1269.76,435.967,1349.39,360.23"/>
  </g>
  <g id="LEDStrip2B">
    <polygon id="1 - 18 S2-8B" points="1271.5,440.888,1241.61,469.818,1238.13,466.225,1268.03,437.295"/>
  </g>
  <g id="LEDStrip3">
    <polygon id="1 - 78 S3-6" points="943.684,770.875,1009.34,655.542,1012.66,657.433,947.007,772.767"/>
    <polygon id="79 - 150 S3-5" points="1010.89,652.837,944.73,540.865,948.454,538.665,1014.62,650.636"/>
    <polygon id="151 - 210 S3-4" points="933.451,523.719,800.776,456.11,803.321,451.114,935.997,518.723"/>
    <polygon id="211 - 288 S3-3" points="785.792,457.851,671.201,483.786,669.688,477.099,784.279,451.164"/>
    <polygon id="289 - 360 S3-2" points="665.213,483.242,633.362,634.668,627.658,633.468,659.509,482.042"/>
    <polygon id="361 - 438 S3-1" points="638.27,643.091,704.714,767.734,699.402,770.565,632.958,645.923"/>
  </g>
  <g id="LEDStrip4a">
    <polygon id="1 - 78 S4-1" points="928.979,782.673,817.17,750.606,818.613,745.574,930.422,777.641"/>
    <polygon id="79 - 153 S4-2" points="811.218,745.622,747.184,622.552,750.8,620.67,814.834,743.741"/>
    <polygon id="154 - 231 S4-3" points="741.211,589.803,794.273,459.266,798.699,461.065,745.637,591.602"/>
    <polygon id="232 - 306 S4-4" points="805.457,443.003,928.4,370.556,931.808,376.339,808.864,448.786"/>
    <polygon id="307 - 381 S4-5" points="938.478,372.868,1076.51,437.26,1073.99,442.645,935.966,378.254"/>
    <polygon id="382 - 459 S4-6" points="1085.02,446.128,1155.31,592.697,1150.83,594.844,1080.54,448.276"/>
    <polygon id="460 - 510 S4-7A" points="1153.06,612.158,1109.38,705.82,1105.62,704.064,1149.29,610.402"/>
  </g>
  <g id="LEDStrip4b">
    <polygon id="1 - 24 S4-7B" points="1109.23,704.816,1093.44,740.294,1089.78,738.667,1105.58,703.189"/>
    <polygon id="25 - 102 S4-8" points="1086.08,746.968,962.675,781.197,961.548,777.136,1084.95,742.907"/>
  </g>
  <g id="LEDStrip5">
    <polygon id="1 - 78 S5-1" points="938.313,778.005,885.478,672.533,889.444,670.546,942.279,776.018"/>
    <polygon id="79 - 150 S5-2" points="885.081,664.858,936.456,537.707,941.591,539.781,890.216,666.933"/>
    <polygon id="151 - 210 S5-3" points="947.674,517.607,1076.2,446.249,1078.69,450.745,950.171,522.103"/>
    <polygon id="211 - 288 S5-4" points="1097.39,445.717,1224.07,468.623,1223.2,473.4,1096.53,450.494"/>
    <polygon id="289 - 360 S5-5" points="1231,478.05,1267.4,626.685,1262.58,627.865,1226.18,479.23"/>
    <polygon id="361 - 438 S5-6" points="1266.16,649.283,1209.18,777.385,1203.88,775.024,1260.85,646.923"/>
  </g>
  <g id="LEDStrip6">
    <polygon id="1 - 63 S6-1" points="1101.76,743.792,1203.8,778.827,1202.21,783.455,1100.17,748.42"/>
    <polygon id="64 - 120 S6-2" points="1215.5,777.741,1328.38,722.881,1330.57,727.378,1217.68,782.239"/>
    <polygon id="121 - 192 S6-3" points="1331.88,720.945,1409.45,558.041,1413.88,560.153,1336.32,723.058"/>
    <polygon id="193 - 264 S6-4" points="1413.68,543.805,1349.97,371.84,1354.1,370.308,1417.81,542.273"/>
    <polygon id="265 - 327 S6-5" points="1343.03,361.212,1202.54,348.79,1203.03,343.236,1343.52,355.658"/>
    <polygon id="328 - 384 S6-6" points="1199.79,344.971,1096.63,439.805,1093.22,436.099,1196.38,341.265"/>
  </g>
  <g id="LED Output">
    <path id="Polygon 16" d="M 1275 638 L 1424 546 L 1336 728 L 1208 790 L 1275 638 z"/>
    <path id="Polygon 15" d="M 1234 467 L 1352 355 L 1424 546 L 1275 638 L 1234 467 z"/>
    <path id="Polygon 14" d="M 1084.69 439.401 L 1195 339 L 1352 355 L 1234 467 L 1084.69 439.401 z"/>
    <path id="Polygon 13" d="M 1084.69 439.401 L 1234 467 L 1275 638 L 1162 599 L 1084.69 439.401 z"/>
    <path id="Polygon 12" d="M 1162 599 L 1275 638 L 1208 790 L 1091 750 L 1162 599 z"/>
    <path id="Polygon 11" d="M 1020 649 L 1162 599 L 1091 750 L 942 789 L 1020 649 z"/>
    <path id="Polygon 10" d="M 941.383 519.37 L 1084.69 439.401 L 1162 599 L 1020 649 L 941.383 519.37 z"/>
    <path id="Polygon 9" d="M 883 670 L 941.383 519.37 L 1020 649 L 942 789 L 883 670 z"/>
    <path id="Polygon 8" d="M 734 602 L 883 670 L 942 789 L 810 751 L 734 602 z"/>
    <path id="Polygon 7" d="M 796.489 444.943 L 941.383 519.37 L 883 670 L 734 602 L 796.489 444.943 z"/>
    <path id="Polygon 6" d="M 796.489 444.943 L 931.882 365.767 L 1084.69 439.401 L 941.383 519.37 L 796.489 444.943 z"/>
    <path id="Polygon 5" d="M 658.722 475.031 L 795 448 L 734 602 L 624 643 L 658.722 475.031 z"/>
    <path id="Polygon 4" d="M 624 643 L 734 602 L 810 751 L 700 785 L 624 643 z"/>
    <path id="Polygon 3" d="M 480 562 L 624 643 L 703 784 L 588 746 L 480 562 z"/>
    <path id="Polygon 2" d="M 502.744 373.684 L 658.722 475.031 L 624 643 L 480 562 L 502.744 373.684 z"/>
    <path id="Polygon 1" d="M 503.535 372.892 L 654.763 477.406 L 800.448 445.735 L 670.598 351.515 L 503.535 372.892 z"/>
    <polygon id="Slice 1" points="-0.611023,-7.354,1919.39,-7.354,1919.39,1075.04,-0.611023,1075.04"/>
    <polygon id="Slice 2" points="0,0,1920,0,1920,1080,0,1080"/>
  </g>
  <g id="MaskedInput">
    <polygon id="LR1-C4" points="720,405,960,405,960,540,720,540"/>
    <polygon id="MR1-C4" points="720,270,960,270,960,405,720,405"/>
    <polygon id="HR1-C4" points="720,135,960,135,960,270,720,270"/>
    <polygon id="MR2-C4" points="720,0,960,0,960,135,720,135"/>
    <polygon id="LR2-C4" points="480,405,720,405,720,540,480,540"/>
    <polygon id="LR3-C4" points="480,270,720,270,720,405,480,405"/>
    <polygon id="MR3-C4" points="480,135,720,135,720,270,480,270"/>
    <polygon id="MC-C4" points="480,0,720,0,720,135,480,135"/>
    <polygon id="LL3-C4" points="240,405,480,405,480,540,240,540"/>
    <polygon id="ML3-C4" points="240,270,480,270,480,405,240,405"/>
    <polygon id="HC-C4" points="240,135,480,135,480,270,240,270"/>
    <polygon id="ML2-C4" points="240,0,480,0,480,135,240,135"/>
    <polygon id="LL2-C4" points="0,405,240,405,240,540,0,540"/>
    <polygon id="LL1-C4" points="0,270,240,270,240,405,0,405"/>
    <polygon id="ML1-C4" points="0,135,240,135,240,270,0,270"/>
    <polygon id="HL1-C4" points="0,0,240,0,240,135,0,135"/>
    <polygon id="LR1-C3" points="720,945,960,945,960,1080,720,1080"/>
    <polygon id="MR1-C3" points="720,810,960,810,960,945,720,945"/>
    <polygon id="HR1-C3" points="720,675,960,675,960,810,720,810"/>
    <polygon id="MR2-C3" points="720,540,960,540,960,675,720,675"/>
    <polygon id="LR2-C3" points="480,945,720,945,720,1080,480,1080"/>
    <polygon id="LR3-C3" points="480,810,720,810,720,945,480,945"/>
    <polygon id="MR3-C3" points="480,675,720,675,720,810,480,810"/>
    <polygon id="MC-C3" points="480,540,720,540,720,675,480,675"/>
    <polygon id="LL3-C3" points="240,945,480,945,480,1080,240,1080"/>
    <polygon id="ML3-C3" points="240,810,480,810,480,945,240,945"/>
    <polygon id="HC-C3" points="240,675,480,675,480,810,240,810"/>
    <polygon id="ML2-C3" points="240,540,480,540,480,675,240,675"/>
    <polygon id="LL2-C3" points="0,945,240,945,240,1080,0,1080"/>
    <polygon id="LL1-C3" points="0,810,240,810,240,945,0,945"/>
    <polygon id="ML1-C3" points="0,675,240,675,240,810,0,810"/>
    <polygon id="HL1-C3" points="0,540,240,540,240,675,0,675"/>
    <polygon id="LR1-C2" points="1680,945,1920,945,1920,1080,1680,1080"/>
    <polygon id="MR1-C2" points="1680,810,1920,810,1920,945,1680,945"/>
    <polygon id="HR1-C2" points="1680,675,1920,675,1920,810,1680,810"/>
    <polygon id="MR2-C2" points="1680,540,1920,540,1920,675,1680,675"/>
    <polygon id="LR2-C2" points="1440,945,1680,945,1680,1080,1440,1080"/>
    <polygon id="LR3-C2" points="1440,810,1680,810,1680,945,1440,945"/>
    <polygon id="MR3-C2" points="1440,675,1680,675,1680,810,1440,810"/>
    <polygon id="MC-C2" points="1440,540,1680,540,1680,675,1440,675"/>
    <polygon id="LL3-C2" points="1200,945,1440,945,1440,1080,1200,1080"/>
    <polygon id="ML3-C2" points="1200,810,1440,810,1440,945,1200,945"/>
    <polygon id="HC-C2" points="1200,675,1440,675,1440,810,1200,810"/>
    <polygon id="ML2-C2" points="1200,540,1440,540,1440,675,1200,675"/>
    <polygon id="LL2-C2" points="960,945,1200,945,1200,1080,960,1080"/>
    <polygon id="LL1-C2" points="960,810,1200,810,1200,945,960,945"/>
    <polygon id="ML1-C2" points="960,675,1200,675,1200,810,960,810"/>
    <polygon id="HL1-C2" points="960,540,1200,540,1200,675,960,675"/>
    <polygon id="LR1-C1" points="1680,405,1920,405,1920,540,1680,540"/>
    <polygon id="MR1-C1" points="1680,270,1920,270,1920,405,1680,405"/>
    <polygon id="HR1-C1" points="1680,135,1920,135,1920,270,1680,270"/>
    <polygon id="MR2-C1" points="1680,0,1920,0,1920,135,1680,135"/>
    <polygon id="LR2-C1" points="1440,405,1680,405,1680,540,1440,540"/>
    <polygon id="LR3-C1" points="1440,270,1680,270,1680,405,1440,405"/>
    <polygon id="MR3-C1" points="1440,135,1680,135,1680,270,1440,270"/>
    <polygon id="MC-C1" points="1440,0,1680,0,1680,135,1440,135"/>
    <polygon id="LL3-C1" points="1200,405,1440,405,1440,540,1200,540"/>
    <polygon id="ML3-C1" points="1200,270,1440,270,1440,405,1200,405"/>
    <polygon id="HC-C1" points="1200,135,1440,135,1440,270,1200,270"/>
    <polygon id="ML2-C1" points="1200,0,1440,0,1440,135,1200,135"/>
    <polygon id="LL2-C1" points="960,405,1200,405,1200,540,960,540"/>
    <polygon id="LL1-C1" points="960,270,1200,270,1200,405,960,405"/>
    <polygon id="ML1-C1" points="960,135,1200,135,1200,270,960,270"/>
    <polygon id="HL1-C1" points="960,0,1200,0,1200,135,960,135"/>
  </g>
  <g id="MappingTemplate">
    <polygon id="LR1-C1" points="1680,405,1920,405,1920,540,1680,540"/>
    <polygon id="MR1-C1" points="1680,270,1920,270,1920,405,1680,405"/>
    <polygon id="HR1-C1" points="1680,135,1920,135,1920,270,1680,270"/>
    <polygon id="MR2-C1" points="1680.05,0,1920.05,0,1920.05,135,1680.05,135"/>
    <polygon id="LR2-C1" points="1440,405,1679.99,405.042,1679.96,540.042,1439.98,540"/>
    <polygon id="LR3-C1" points="1440,270,1680,270,1680,405,1440,405"/>
    <polygon id="MR-C1" points="1440,135,1680,135,1680,270,1440,270"/>
    <polygon id="MC-C1" points="1440,0,1680,0,1680,135,1440,135"/>
    <polygon id="LL3-C1" points="1200,405,1440,405,1440,540,1200,540"/>
    <polygon id="ML3-C1" points="1200,270,1440,270,1440,405,1200,405"/>
    <polygon id="HC-C1" points="1200,135,1440,135,1440,270,1200,270"/>
    <polygon id="ML2-C1" points="1199.99,0,1439.99,0,1439.99,135,1199.99,135"/>
    <polygon id="LL2-C1" points="960,405,1200,405,1200,540,960,540"/>
    <polygon id="LL1-C1" points="960,270,1200,270,1200,405,960,405"/>
    <polygon id="ML1-C1" points="960,135,1200,135,1200,270,960,270"/>
    <polygon id="HL1-C1" points="960,0,1200,0,1200,135,960,135"/>
  </g>
  <g id="Horizontal Map">
    <polygon id="LR1-C2" points="1472.69,501.452,1920,501.452,1920,1077.67,1472.69,1077.67"/>
    <polygon id="MR1-C2" points="1527.79,42.7071,1919.4,42.7071,1919.4,721.014,1527.79,721.014"/>
    <polygon id="HR1-C2" points="1232.99,4.57764e-005,1787.37,4.57764e-005,1787.37,315.145,1232.99,315.145"/>
    <polygon id="MR2-C2" points="1233.27,246.413,1612.55,246.413,1612.55,717.273,1233.27,717.273"/>
    <polygon id="LR2-C2" points="1242.86,638.367,1615.61,638.367,1615.61,1071.81,1242.86,1071.81"/>
    <polygon id="LR3-C2" points="950.916,634.959,1380.29,634.959,1380.29,1075.65,950.916,1075.65"/>
    <polygon id="MR-C2" points="938.872,242.683,1375.6,242.683,1375.6,753.006,938.872,753.006"/>
    <polygon id="MC-C2" points="824.937,443.682,1096.04,443.682,1096.04,1073.62,824.937,1073.62"/>
    <polygon id="LL3-C2" points="516.138,642.605,941.474,642.605,941.474,1071.26,516.138,1071.26"/>
    <polygon id="ML3-C2" points="522.787,272.456,945.418,272.456,945.418,795.362,522.787,795.362"/>
    <polygon id="HC-C2" points="650.63,69.9714,1223.06,69.9714,1223.06,435.892,650.63,435.892"/>
    <polygon id="ML2-C2" points="295.45,265.273,646.723,265.273,646.723,733.668,295.45,733.668"/>
    <polygon id="LL2-C2" points="298.472,638.643,670.676,638.643,670.676,1065.39,298.472,1065.39"/>
    <polygon id="LL1-C2" points="-1.52588e-005,539.955,452.629,539.955,452.629,1080,-1.52588e-005,1080"/>
    <polygon id="ML1-C2" points="1.84668,95.1418,363.645,95.1418,363.645,731.095,1.84668,731.095"/>
    <polygon id="HL1-C2" points="51.9163,36.6794,638.467,36.6794,638.467,334.739,51.9163,334.739"/>
    <polygon id="LR1-C1" points="1202.89,547.609,1422.34,547.609,1422.34,786.201,1202.89,786.201"/>
    <polygon id="MR1-C1" points="1229.03,353.572,1421.81,353.572,1421.81,636.831,1229.03,636.831"/>
    <polygon id="HR1-C1" points="1085.28,337.667,1356.2,337.667,1356.2,468.075,1085.28,468.075"/>
    <polygon id="MR2-C1" points="1087.22,439.783,1271.52,439.783,1271.52,635.914,1087.22,635.914"/>
    <polygon id="LR2-C1" points="1085.85,602.349,1273.75,602.349,1273.75,786.31,1085.85,786.31"/>
    <polygon id="LR3-C1" points="946.674,787.274,1057.69,554.526,1157.83,602.29,1046.81,835.038"/>
    <polygon id="MR-C1" points="1078.28,428.642,1183.04,583.958,1038.38,681.534,933.619,526.219"/>
    <polygon id="MC-C1" points="884.13,518.265,1016.98,518.265,1016.98,787.948,884.13,787.948"/>
    <polygon id="LL3-C1" points="823.323,559.639,944.67,787.85,854.076,836.022,732.729,607.811"/>
    <polygon id="ML3-C1" points="938.225,440.248,948.048,666.019,739.33,675.101,729.506,449.329"/>
    <polygon id="HC-C1" points="831.383,333.354,1091.24,412.8,1048.89,551.335,789.029,471.889"/>
    <polygon id="ML2-C1" points="625.148,447.074,797.547,447.074,797.547,642.888,625.148,642.888"/>
    <polygon id="LL2-C1" points="617.968,647.045,723.643,582.289,821.773,742.427,716.098,807.183"/>
    <polygon id="LL1-C1" points="708.688,570.851,699.458,782.369,471.763,772.434,480.992,560.916"/>
    <polygon id="ML1-C1" points="657.811,373.602,657.818,643.833,481.185,643.838,481.178,373.607"/>
    <polygon id="HL1-C1" points="791.159,345.329,798.499,465.281,509.88,482.941,502.54,362.989"/>
  </g>
  <g id="PolygonTweakmap">
    <path id="Polygon 16" d="M 1275 638 L 1424 546 L 1336 728 L 1208 790 L 1275 638 z"/>
    <path id="Polygon 15" d="M 1234 467 L 1352 355 L 1424 546 L 1275 638 L 1234 467 z"/>
    <path id="Polygon 14" d="M 1084.69 439.401 L 1195 339 L 1352 355 L 1234 467 L 1084.69 439.401 z"/>
    <path id="Polygon 13" d="M 1084.69 439.401 L 1234 467 L 1275 638 L 1162 599 L 1084.69 439.401 z"/>
    <path id="Polygon 12" d="M 1162 599 L 1275 638 L 1208 790 L 1091 750 L 1162 599 z"/>
    <path id="Polygon 11" d="M 1020 649 L 1162 599 L 1091 750 L 942 789 L 1020 649 z"/>
    <path id="Polygon 10" d="M 941.383 519.37 L 1084.69 439.401 L 1162 599 L 1020 649 L 941.383 519.37 z"/>
    <path id="Polygon 9" d="M 883 670 L 941.383 519.37 L 1020 649 L 942 789 L 883 670 z"/>
    <path id="Polygon 8" d="M 734 602 L 883 670 L 942 789 L 810 751 L 734 602 z"/>
    <path id="Polygon 7" d="M 796.489 444.943 L 941.383 519.37 L 883 670 L 734 602 L 796.489 444.943 z"/>
    <path id="Polygon 6" d="M 796.489 444.943 L 931.882 365.767 L 1084.69 439.401 L 941.383 519.37 L 796.489 444.943 z"/>
    <path id="Polygon 5" d="M 658.722 475.031 L 795 448 L 734 602 L 624 643 L 658.722 475.031 z"/>
    <path id="Polygon 4" d="M 624 643 L 734 602 L 810 751 L 700 785 L 624 643 z"/>
    <path id="Polygon 3" d="M 480 562 L 624 643 L 703 784 L 588 746 L 480 562 z"/>
    <path id="Polygon 2" d="M 502.744 373.684 L 658.722 475.031 L 624 643 L 480 562 L 502.744 373.684 z"/>
    <path id="Polygon 1" d="M 503.535 372.892 L 654.763 477.406 L 800.448 445.735 L 670.598 351.515 L 503.535 372.892 z"/>
  </g>
</svg>
