<?xml version="1.0" encoding="UTF-8"?>

<!DOCTYPE svg PUBLIC "-//W3C//DTD SVG 1.1//EN" "http://www.w3.org/Graphics/SVG/1.1/DTD/svg11.dtd">
<svg version="1.1" xmlns="http://www.w3.org/2000/svg" width="1920"
     height="1080" viewport="0 0 1920 1080" stroke-width="1" stroke="#000000"
     fill="none">
  <g id="Template(Unused.)">
    <polygon id="LR1" points="1440,805.184,1920,805.184,1920,1072,1440,1072"/>
    <polygon id="MR1" points="1440,538.369,1920,538.369,1920,805.184,1440,805.184"/>
    <polygon id="HR1" points="1440,271.553,1920,271.553,1920,538.369,1440,538.369"/>
    <polygon id="MR2" points="1440,4.73753,1920,4.73753,1920,271.553,1440,271.553"/>
    <polygon id="LR2" points="960,800.447,1440,800.447,1440,1067.26,960,1067.26"/>
    <polygon id="LR3" points="960,538.369,1440,538.369,1440,805.184,960,805.184"/>
    <polygon id="MR3" points="960,271.553,1440,271.553,1440,538.369,960,538.369"/>
    <polygon id="MC" points="960,4.73753,1440,4.73753,1440,271.553,960,271.553"/>
    <polygon id="LL3" points="480,800.447,960,800.447,960,1067.26,480,1067.26"/>
    <polygon id="ML3" points="480,533.631,960,533.631,960,800.447,480,800.447"/>
    <polygon id="HC" points="480,266.816,960,266.816,960,533.631,480,533.631"/>
    <polygon id="ML2" points="480,0,960,0,960,266.816,480,266.816"/>
    <polygon id="LL2" points="0,800.447,480,800.447,480,1067.26,0,1067.26"/>
    <polygon id="LL1" points="0,533.631,480,533.631,480,800.447,0,800.447"/>
    <polygon id="ML1" points="0,266.816,480,266.816,480,533.631,0,533.631"/>
    <polygon id="HL1" points="0.00012207,3.01577e-005,480,3.01577e-005,480,266.816,0.00012207,266.816"/>
  </g>
</svg>
