<?xml version="1.0" encoding="UTF-8"?>

<!DOCTYPE svg PUBLIC "-//W3C//DTD SVG 1.1//EN" "http://www.w3.org/Graphics/SVG/1.1/DTD/svg11.dtd">
<svg version="1.1" xmlns="http://www.w3.org/2000/svg" width="1920"
     height="1080" viewport="0 0 1920 1080" stroke-width="1" stroke="#000000"
     fill="none">
  <g id="Template(Keep Unused.)">
    <polygon id="LR1-C4" points="720,405,960,405,960,540,720,540"/>
    <polygon id="MR1-C4" points="720,270,960,270,960,405,720,405"/>
    <polygon id="HR1-C4" points="720,135,960,135,960,270,720,270"/>
    <polygon id="MR2-C4" points="720,0,960,0,960,135,720,135"/>
    <polygon id="LR2-C4" points="480,405,720,405,720,540,480,540"/>
    <polygon id="LR3-C4" points="480,270,720,270,720,405,480,405"/>
    <polygon id="MR3-C4" points="480,135,720,135,720,270,480,270"/>
    <polygon id="MC-C4" points="480,0,720,0,720,135,480,135"/>
    <polygon id="LL3-C4" points="240,405,480,405,480,540,240,540"/>
    <polygon id="ML3-C4" points="240,270,480,270,480,405,240,405"/>
    <polygon id="HC-C4" points="240,135,480,135,480,270,240,270"/>
    <polygon id="ML2-C4" points="240,0,480,0,480,135,240,135"/>
    <polygon id="LL2-C4" points="0,405,240,405,240,540,0,540"/>
    <polygon id="LL1-C4" points="0,270,240,270,240,405,0,405"/>
    <polygon id="ML1-C4" points="0,135,240,135,240,270,0,270"/>
    <polygon id="HL1-C4" points="0,0,240,0,240,135,0,135"/>
    <polygon id="LR1-C3" points="720,945,960,945,960,1080,720,1080"/>
    <polygon id="MR1-C3" points="720,810,960,810,960,945,720,945"/>
    <polygon id="HR1-C3" points="720,675,960,675,960,810,720,810"/>
    <polygon id="MR2-C3" points="720,540,960,540,960,675,720,675"/>
    <polygon id="LR2-C3" points="480,945,720,945,720,1080,480,1080"/>
    <polygon id="LR3-C3" points="480,810,720,810,720,945,480,945"/>
    <polygon id="MR3-C3" points="480,675,720,675,720,810,480,810"/>
    <polygon id="MC-C3" points="480,540,720,540,720,675,480,675"/>
    <polygon id="LL3-C3" points="240,945,480,945,480,1080,240,1080"/>
    <polygon id="ML3-C3" points="240,810,480,810,480,945,240,945"/>
    <polygon id="HC-C3" points="240,675,480,675,480,810,240,810"/>
    <polygon id="ML2-C3" points="240,540,480,540,480,675,240,675"/>
    <polygon id="LL2-C3" points="0,945,240,945,240,1080,0,1080"/>
    <polygon id="LL1-C3" points="0,810,240,810,240,945,0,945"/>
    <polygon id="ML1-C3" points="0,675,240,675,240,810,0,810"/>
    <polygon id="HL1-C3" points="0,540,240,540,240,675,0,675"/>
    <polygon id="LR1-C2" points="1680,945,1920,945,1920,1080,1680,1080"/>
    <polygon id="MR1-C2" points="1680,810,1920,810,1920,945,1680,945"/>
    <polygon id="HR1-C2" points="1680,675,1920,675,1920,810,1680,810"/>
    <polygon id="MR2-C2" points="1680,540,1920,540,1920,675,1680,675"/>
    <polygon id="LR2-C2" points="1440,945,1680,945,1680,1080,1440,1080"/>
    <polygon id="LR3-C2" points="1440,810,1680,810,1680,945,1440,945"/>
    <polygon id="MR3-C2" points="1440,675,1680,675,1680,810,1440,810"/>
    <polygon id="MC-C2" points="1440,540,1680,540,1680,675,1440,675"/>
    <polygon id="LL3-C2" points="1200,945,1440,945,1440,1080,1200,1080"/>
    <polygon id="ML3-C2" points="1200,810,1440,810,1440,945,1200,945"/>
    <polygon id="HC-C2" points="1200,675,1440,675,1440,810,1200,810"/>
    <polygon id="ML2-C2" points="1200,540,1440,540,1440,675,1200,675"/>
    <polygon id="LL2-C2" points="960,945,1200,945,1200,1080,960,1080"/>
    <polygon id="LL1-C2" points="960,810,1200,810,1200,945,960,945"/>
    <polygon id="ML1-C2" points="960,675,1200,675,1200,810,960,810"/>
    <polygon id="HL1-C2" points="960,540,1200,540,1200,675,960,675"/>
    <polygon id="LR1-C1" points="1680,405,1920,405,1920,540,1680,540"/>
    <polygon id="MR1-C1" points="1680,270,1920,270,1920,405,1680,405"/>
    <polygon id="HR1-C1" points="1680,135,1920,135,1920,270,1680,270"/>
    <polygon id="MR2-C1" points="1680,0,1920,0,1920,135,1680,135"/>
    <polygon id="LR2-C1" points="1440,405,1680,405,1680,540,1440,540"/>
    <polygon id="LR3-C1" points="1440,270,1680,270,1680,405,1440,405"/>
    <polygon id="MR3-C1" points="1440,135,1680,135,1680,270,1440,270"/>
    <polygon id="MC-C1" points="1440,0,1680,0,1680,135,1440,135"/>
    <polygon id="LL3-C1" points="1200,405,1440,405,1440,540,1200,540"/>
    <polygon id="ML3-C1" points="1200,270,1440,270,1440,405,1200,405"/>
    <polygon id="HC-C1" points="1200,135,1440,135,1440,270,1200,270"/>
    <polygon id="ML2-C1" points="1200,0,1440,0,1440,135,1200,135"/>
    <polygon id="LL2-C1" points="960,405,1200,405,1200,540,960,540"/>
    <polygon id="LL1-C1" points="960,270,1200,270,1200,405,960,405"/>
    <polygon id="ML1-C1" points="960,135,1200,135,1200,270,960,270"/>
    <polygon id="HL1-C1" points="960,0,1200,0,1200,135,960,135"/>
  </g>
  <g id="Oneimage">
    <polygon id="Content4(yellow)" points="0,0,960,0,960,540,0,540"/>
    <polygon id="Content3(Cyan)" points="0,540,960,540,960,1080,0,1080"/>
    <polygon id="Content2(Green)" points="960,540,1920,540,1920,1080,960,1080"/>
    <polygon id="Content1(Purple)" points="960,0,1920,0,1920,535.206,960,535.206"/>
  </g>
  <g id="Mapping1">
    <polygon id="LR1-C1" points="1439.93,809.937,1919.91,809.937,1919.91,1079.92,1439.93,1079.92"/>
    <polygon id="MR1-C1" points="1439.93,539.958,1919.91,539.958,1919.91,809.937,1439.93,809.937"/>
    <polygon id="HR1-C1" points="1439.93,269.979,1919.91,269.979,1919.91,539.958,1439.93,539.958"/>
    <polygon id="MR2-C1" points="1440.02,0,1920,0,1920,269.979,1440.02,269.979"/>
    <polygon id="LR2-C1" points="959.954,809.936,1439.91,810.02,1439.86,1080,959.906,1079.92"/>
    <polygon id="LR3-C1" points="959.955,539.958,1439.93,539.958,1439.93,809.937,959.955,809.937"/>
    <polygon id="MR-C1" points="959.955,269.979,1439.93,269.979,1439.93,539.958,959.955,539.958"/>
    <polygon id="MC-C1" points="959.955,0,1439.93,0,1439.93,269.979,959.955,269.979"/>
    <polygon id="LL3-C1" points="479.977,809.937,959.955,809.937,959.955,1079.92,479.977,1079.92"/>
    <polygon id="ML3-C1" points="479.977,539.958,959.955,539.958,959.955,809.937,479.977,809.937"/>
    <polygon id="HC-C1" points="479.977,269.979,959.955,269.979,959.955,539.958,479.977,539.958"/>
    <polygon id="ML2-C1" points="479.957,0,959.934,0,959.934,269.979,479.957,269.979"/>
    <polygon id="LL2-C1" points="1.52588e-005,809.937,479.978,809.937,479.978,1079.92,1.52588e-005,1079.92"/>
    <polygon id="LL1-C1" points="1.52588e-005,539.958,479.978,539.958,479.978,809.937,1.52588e-005,809.937"/>
    <polygon id="ML1-C1" points="1.52588e-005,269.979,479.978,269.979,479.978,539.958,1.52588e-005,539.958"/>
    <polygon id="HL1-C1" points="1.52588e-005,0,479.978,0,479.978,269.979,1.52588e-005,269.979"/>
  </g>
  <g id="Precompose">
    <polygon id="SmallImages" points="0,0,1920,0,1920,1080,0,1080"/>
    <polygon id="OneImage" points="0,-4.79401,1920,-4.79401,1920,1080,0,1080"/>
  </g>
  <g id="Projector output">
    <polygon id="Precompose_Out" points="0,0,1920,0,1920,1080,0,1080"/>
  </g>
  <g id="LEDStrip1">
    <polygon id="1 - 63 S1-1-21" points="828.491,744.106,715.927,788.18,712.989,780.677,825.553,736.603"/>
    <polygon id="64 - 120 S1-2" points="710.77,788.767,591.517,749.229,594.287,740.874,713.54,780.412"/>
    <polygon id="121 - 192 S1-3-21" points="587.516,745.151,480.693,580.52,488.289,575.591,595.111,740.223"/>
    <polygon id="193 - 264 S1-4" points="477.831,574.502,517.124,368.353,525.623,369.973,486.331,576.122"/>
    <polygon id="265 - 327 S1-5" points="523.292,361.931,690.121,334.97,691.529,343.683,524.7,370.643"/>
    <polygon id="328 - 384 S1-6" points="695.43,337.697,806.97,438.372,801.117,444.857,689.577,344.182"/>
  </g>
  <g id="LEDStrip2A">
    <polygon id="1 - 63 S2-1" points="666.077,478.096,525.959,376.098,531.121,369.008,671.238,471.005"/>
    <polygon id="64 - 126 S2-2" points="486.813,573.168,644.649,643.176,641.081,651.22,483.245,581.212"/>
    <polygon id="127 - 183 S2-3" points="643.149,642.682,742.141,605.907,745.204,614.152,646.212,650.927"/>
    <polygon id="184 - 264 S2-4" points="757.94,608.144,893.265,658.416,890.2,666.666,754.875,616.394"/>
    <polygon id="265 - 345 S2-5" points="1014.69,655.289,1153.3,606.612,1156.22,614.914,1017.6,663.591"/>
    <polygon id="346 - 402 S2-6" points="1157.28,606.621,1269.45,643.806,1266.68,652.16,1154.51,614.976"/>
    <polygon id="403 - 465 S2-7" points="1269.51,644.447,1418.03,560.455,1422.35,568.1,1273.83,652.091"/>
    <polygon id="466 - 510 S2-8A" points="1399.83,356.784,1283.82,447.626,1278.42,440.721,1394.43,349.879"/>
  </g>
  <g id="LEDStrip2B">
    <polygon id="1 - 18 S2-8B" points="1285.66,446.161,1242.87,479.668,1237.48,472.781,1280.27,439.274"/>
  </g>
  <g id="LEDStrip3">
    <polygon id="1 - 78 S3-6" points="957.793,809.168,1006.94,659.245,1015.2,661.951,966.047,811.874"/>
    <polygon id="79 - 150 S3-5" points="1005.71,660.828,953.114,537.399,961.089,534.001,1013.68,657.429"/>
    <polygon id="151 - 210 S3-4" points="943.721,531.712,811.04,450.397,815.63,442.907,948.311,524.222"/>
    <polygon id="211 - 288 S3-3" points="802.034,451.481,680.354,479.021,678.41,470.432,800.09,442.892"/>
    <polygon id="289 - 360 S3-2" points="669.924,478.364,653.169,641.105,644.554,640.218,661.31,477.477"/>
    <polygon id="361 - 438 S3-1" points="653.705,648.146,711.293,777.12,703.357,780.664,645.769,651.69"/>
  </g>
  <g id="LEDStrip4a">
    <polygon id="1 - 78 S4-1" points="945.197,818.398,825.642,745.127,830.231,737.64,949.786,810.91"/>
    <polygon id="79 - 153 S4-2" points="821.568,739.15,749.223,618.69,756.679,614.212,829.024,734.672"/>
    <polygon id="154 - 231 S4-3" points="746.495,587.836,800.273,441.048,808.417,444.032,754.638,590.82"/>
    <polygon id="232 - 306 S4-4" points="811.226,440.013,946.465,358.722,950.99,366.249,815.75,447.539"/>
    <polygon id="307 - 381 S4-5" points="953.846,358.779,1091.22,441.353,1086.7,448.88,949.322,366.306"/>
    <polygon id="382 - 459 S4-6" points="1099.56,450.669,1157.75,605.303,1149.62,608.361,1091.44,453.727"/>
    <polygon id="460 - 510 S4-7A" points="1153.27,621.503,1103.08,712.05,1096.3,708.29,1146.48,617.743"/>
  </g>
  <g id="LEDStrip4b">
    <polygon id="1 - 24 S4-7B" points="1103.89,710.543,1082.51,749.113,1075.74,745.358,1097.12,706.789"/>
    <polygon id="25 - 102 S4-8" points="1078.54,753.168,967.603,818.522,963.147,810.958,1074.08,745.604"/>
  </g>
  <g id="LEDStrip5">
    <polygon id="1 - 78 S5-1" points="940.396,813.319,887.444,664.681,895.604,661.774,948.555,810.413"/>
    <polygon id="79 - 150 S5-2" points="888.294,658.086,946.061,536.98,953.891,540.715,896.124,661.821"/>
    <polygon id="151 - 210 S5-3" points="955.204,524.365,1089.64,446.624,1094.04,454.227,959.6,531.968"/>
    <polygon id="211 - 288 S5-4" points="1103.79,445.961,1225.63,471.303,1223.83,479.928,1102,454.586"/>
    <polygon id="289 - 360 S5-5" points="1245.1,479.265,1275.22,637.702,1266.72,639.316,1236.61,480.88"/>
    <polygon id="361 - 438 S5-6" points="1272.34,654.61,1198.18,794.206,1190.62,790.19,1264.78,650.593"/>
  </g>
  <g id="LEDStrip6">
    <polygon id="1 - 63 S6-1" points="1083.49,747.069,1187.8,796.712,1184.33,804.002,1080.02,754.36"/>
    <polygon id="64 - 120 S6-2" points="1192.48,791.817,1307.65,741.932,1311.15,750.006,1195.98,799.89"/>
    <polygon id="121 - 192 S6-3" points="1304.92,738.516,1415.25,571.564,1422.85,576.584,1312.51,743.535"/>
    <polygon id="193 - 264 S6-4" points="1423.49,560.788,1393.67,357.072,1402.28,355.812,1432.1,559.527"/>
    <polygon id="265 - 327 S6-5" points="1395.16,347.357,1226.23,339.825,1226.63,330.982,1395.56,338.514"/>
    <polygon id="328 - 384 S6-6" points="1214.49,340.782,1102.46,445.59,1096.47,439.192,1208.51,334.384"/>
  </g>
  <g id="LED Output">
    <polygon id="Slice 1" points="-0.611023,-7.354,1919.39,-7.354,1919.39,1075.04,-0.611023,1075.04"/>
    <polygon id="Slice 2" points="0,0,1920,0,1920,1080,0,1080"/>
  </g>
  <g id="MaskedInput">
    <polygon id="LR1-C4" points="720,405,960,405,960,540,720,540"/>
    <polygon id="MR1-C4" points="720,270,960,270,960,405,720,405"/>
    <polygon id="HR1-C4" points="720,135,960,135,960,270,720,270"/>
    <polygon id="MR2-C4" points="720,0,960,0,960,135,720,135"/>
    <polygon id="LR2-C4" points="480,405,720,405,720,540,480,540"/>
    <polygon id="LR3-C4" points="480,270,720,270,720,405,480,405"/>
    <polygon id="MR3-C4" points="480,135,720,135,720,270,480,270"/>
    <polygon id="MC-C4" points="480,0,720,0,720,135,480,135"/>
    <polygon id="LL3-C4" points="240,405,480,405,480,540,240,540"/>
    <polygon id="ML3-C4" points="240,270,480,270,480,405,240,405"/>
    <polygon id="HC-C4" points="240,135,480,135,480,270,240,270"/>
    <polygon id="ML2-C4" points="240,0,480,0,480,135,240,135"/>
    <polygon id="LL2-C4" points="0,405,240,405,240,540,0,540"/>
    <polygon id="LL1-C4" points="0,270,240,270,240,405,0,405"/>
    <polygon id="ML1-C4" points="0,135,240,135,240,270,0,270"/>
    <polygon id="HL1-C4" points="0,0,240,0,240,135,0,135"/>
    <polygon id="LR1-C3" points="720,945,960,945,960,1080,720,1080"/>
    <polygon id="MR1-C3" points="720,810,960,810,960,945,720,945"/>
    <polygon id="HR1-C3" points="720,675,960,675,960,810,720,810"/>
    <polygon id="MR2-C3" points="720,540,960,540,960,675,720,675"/>
    <polygon id="LR2-C3" points="480,945,720,945,720,1080,480,1080"/>
    <polygon id="LR3-C3" points="480,810,720,810,720,945,480,945"/>
    <polygon id="MR3-C3" points="480,675,720,675,720,810,480,810"/>
    <polygon id="MC-C3" points="480,540,720,540,720,675,480,675"/>
    <polygon id="LL3-C3" points="240,945,480,945,480,1080,240,1080"/>
    <polygon id="ML3-C3" points="240,810,480,810,480,945,240,945"/>
    <polygon id="HC-C3" points="240,675,480,675,480,810,240,810"/>
    <polygon id="ML2-C3" points="240,540,480,540,480,675,240,675"/>
    <polygon id="LL2-C3" points="0,945,240,945,240,1080,0,1080"/>
    <polygon id="LL1-C3" points="0,810,240,810,240,945,0,945"/>
    <polygon id="ML1-C3" points="0,675,240,675,240,810,0,810"/>
    <polygon id="HL1-C3" points="0,540,240,540,240,675,0,675"/>
    <polygon id="LR1-C2" points="1680,945,1920,945,1920,1080,1680,1080"/>
    <polygon id="MR1-C2" points="1680,810,1920,810,1920,945,1680,945"/>
    <polygon id="HR1-C2" points="1680,675,1920,675,1920,810,1680,810"/>
    <polygon id="MR2-C2" points="1680,540,1920,540,1920,675,1680,675"/>
    <polygon id="LR2-C2" points="1440,945,1680,945,1680,1080,1440,1080"/>
    <polygon id="LR3-C2" points="1440,810,1680,810,1680,945,1440,945"/>
    <polygon id="MR3-C2" points="1440,675,1680,675,1680,810,1440,810"/>
    <polygon id="MC-C2" points="1440,540,1680,540,1680,675,1440,675"/>
    <polygon id="LL3-C2" points="1200,945,1440,945,1440,1080,1200,1080"/>
    <polygon id="ML3-C2" points="1200,810,1440,810,1440,945,1200,945"/>
    <polygon id="HC-C2" points="1200,675,1440,675,1440,810,1200,810"/>
    <polygon id="ML2-C2" points="1200,540,1440,540,1440,675,1200,675"/>
    <polygon id="LL2-C2" points="960,945,1200,945,1200,1080,960,1080"/>
    <polygon id="LL1-C2" points="960,810,1200,810,1200,945,960,945"/>
    <polygon id="ML1-C2" points="960,675,1200,675,1200,810,960,810"/>
    <polygon id="HL1-C2" points="960,540,1200,540,1200,675,960,675"/>
    <polygon id="LR1-C1" points="1680,405,1920,405,1920,540,1680,540"/>
    <polygon id="MR1-C1" points="1680,270,1920,270,1920,405,1680,405"/>
    <polygon id="HR1-C1" points="1680,135,1920,135,1920,270,1680,270"/>
    <polygon id="MR2-C1" points="1680,0,1920,0,1920,135,1680,135"/>
    <polygon id="LR2-C1" points="1440,405,1680,405,1680,540,1440,540"/>
    <polygon id="LR3-C1" points="1440,270,1680,270,1680,405,1440,405"/>
    <polygon id="MR3-C1" points="1440,135,1680,135,1680,270,1440,270"/>
    <polygon id="MC-C1" points="1440,0,1680,0,1680,135,1440,135"/>
    <polygon id="LL3-C1" points="1200,405,1440,405,1440,540,1200,540"/>
    <polygon id="ML3-C1" points="1200,270,1440,270,1440,405,1200,405"/>
    <polygon id="HC-C1" points="1200,135,1440,135,1440,270,1200,270"/>
    <polygon id="ML2-C1" points="1200,0,1440,0,1440,135,1200,135"/>
    <polygon id="LL2-C1" points="960,405,1200,405,1200,540,960,540"/>
    <polygon id="LL1-C1" points="960,270,1200,270,1200,405,960,405"/>
    <polygon id="ML1-C1" points="960,135,1200,135,1200,270,960,270"/>
    <polygon id="HL1-C1" points="960,0,1200,0,1200,135,960,135"/>
  </g>
  <g id="MappingTemplate">
    <polygon id="LR1-C1" points="1680,405,1920,405,1920,540,1680,540"/>
    <polygon id="MR1-C1" points="1680,270,1920,270,1920,405,1680,405"/>
    <polygon id="HR1-C1" points="1680,135,1920,135,1920,270,1680,270"/>
    <polygon id="MR2-C1" points="1680.05,0,1920.05,0,1920.05,135,1680.05,135"/>
    <polygon id="LR2-C1" points="1440,405,1679.99,405.042,1679.96,540.042,1439.98,540"/>
    <polygon id="LR3-C1" points="1440,270,1680,270,1680,405,1440,405"/>
    <polygon id="MR-C1" points="1440,135,1680,135,1680,270,1440,270"/>
    <polygon id="MC-C1" points="1440,0,1680,0,1680,135,1440,135"/>
    <polygon id="LL3-C1" points="1200,405,1440,405,1440,540,1200,540"/>
    <polygon id="ML3-C1" points="1200,270,1440,270,1440,405,1200,405"/>
    <polygon id="HC-C1" points="1200,135,1440,135,1440,270,1200,270"/>
    <polygon id="ML2-C1" points="1199.99,0,1439.99,0,1439.99,135,1199.99,135"/>
    <polygon id="LL2-C1" points="960,405,1200,405,1200,540,960,540"/>
    <polygon id="LL1-C1" points="960,270,1200,270,1200,405,960,405"/>
    <polygon id="ML1-C1" points="960,135,1200,135,1200,270,960,270"/>
    <polygon id="HL1-C1" points="960,0,1200,0,1200,135,960,135"/>
  </g>
  <g id="Horizontal Map">
    <polygon id="LR1-C2" points="1472.69,501.452,1920,501.452,1920,1077.67,1472.69,1077.67"/>
    <polygon id="MR1-C2" points="1527.79,42.7071,1919.4,42.7071,1919.4,721.014,1527.79,721.014"/>
    <polygon id="HR1-C2" points="1232.99,4.57764e-005,1787.37,4.57764e-005,1787.37,315.145,1232.99,315.145"/>
    <polygon id="MR2-C2" points="1233.27,246.413,1612.55,246.413,1612.55,717.273,1233.27,717.273"/>
    <polygon id="LR2-C2" points="1242.86,638.367,1615.61,638.367,1615.61,1071.81,1242.86,1071.81"/>
    <polygon id="LR3-C2" points="950.916,634.959,1380.29,634.959,1380.29,1075.65,950.916,1075.65"/>
    <polygon id="MR-C2" points="938.872,242.683,1375.6,242.683,1375.6,753.006,938.872,753.006"/>
    <polygon id="MC-C2" points="824.937,443.682,1096.04,443.682,1096.04,1073.62,824.937,1073.62"/>
    <polygon id="LL3-C2" points="516.138,642.605,941.474,642.605,941.474,1071.26,516.138,1071.26"/>
    <polygon id="ML3-C2" points="522.787,272.456,945.418,272.456,945.418,795.362,522.787,795.362"/>
    <polygon id="HC-C2" points="650.63,69.9714,1223.06,69.9714,1223.06,435.892,650.63,435.892"/>
    <polygon id="ML2-C2" points="295.45,265.273,646.723,265.273,646.723,733.668,295.45,733.668"/>
    <polygon id="LL2-C2" points="298.472,638.643,670.676,638.643,670.676,1065.39,298.472,1065.39"/>
    <polygon id="LL1-C2" points="-1.52588e-005,539.955,452.629,539.955,452.629,1080,-1.52588e-005,1080"/>
    <polygon id="ML1-C2" points="1.84668,95.1418,363.645,95.1418,363.645,731.095,1.84668,731.095"/>
    <polygon id="HL1-C2" points="51.9163,36.6794,638.467,36.6794,638.467,334.739,51.9163,334.739"/>
    <polygon id="LR1-C1" points="1202.89,547.609,1422.34,547.609,1422.34,786.201,1202.89,786.201"/>
    <polygon id="MR1-C1" points="1229.03,353.572,1421.81,353.572,1421.81,636.831,1229.03,636.831"/>
    <polygon id="HR1-C1" points="1085.28,337.667,1356.2,337.667,1356.2,468.075,1085.28,468.075"/>
    <polygon id="MR2-C1" points="1087.22,439.783,1271.52,439.783,1271.52,635.914,1087.22,635.914"/>
    <polygon id="LR2-C1" points="1085.85,602.349,1273.75,602.349,1273.75,786.31,1085.85,786.31"/>
    <polygon id="LR3-C1" points="946.674,787.274,1057.69,554.526,1157.83,602.29,1046.81,835.038"/>
    <polygon id="MR-C1" points="1078.28,428.642,1183.04,583.958,1038.38,681.534,933.619,526.219"/>
    <polygon id="MC-C1" points="884.13,518.265,1016.98,518.265,1016.98,787.948,884.13,787.948"/>
    <polygon id="LL3-C1" points="823.323,559.639,944.67,787.85,854.076,836.022,732.729,607.811"/>
    <polygon id="ML3-C1" points="938.224,440.248,948.048,666.019,739.329,675.101,729.505,449.329"/>
    <polygon id="HC-C1" points="831.383,333.354,1091.24,412.8,1048.89,551.335,789.029,471.889"/>
    <polygon id="ML2-C1" points="625.148,447.074,797.547,447.074,797.547,642.888,625.148,642.888"/>
    <polygon id="LL2-C1" points="617.968,647.045,723.643,582.289,821.773,742.427,716.098,807.183"/>
    <polygon id="LL1-C1" points="708.687,570.851,699.458,782.368,471.763,772.433,480.992,560.916"/>
    <polygon id="ML1-C1" points="657.811,373.602,657.818,643.833,481.185,643.838,481.178,373.607"/>
    <polygon id="HL1-C1" points="791.159,345.329,798.499,465.281,509.88,482.941,502.54,362.989"/>
  </g>
  <g id="PolygonTweakmap">
    <path id="Polygon 16" d="M 1275 638 L 1424 546 L 1336 728 L 1208 790 L 1275 638 z"/>
    <path id="Polygon 15" d="M 1234 467 L 1352 355 L 1424 546 L 1275 638 L 1234 467 z"/>
    <path id="Polygon 14" d="M 1084.69 439.401 L 1195 339 L 1352 355 L 1234 467 L 1084.69 439.401 z"/>
    <path id="Polygon 13" d="M 1084.69 439.401 L 1234 467 L 1275 638 L 1162 599 L 1084.69 439.401 z"/>
    <path id="Polygon 12" d="M 1162 599 L 1275 638 L 1208 790 L 1091 750 L 1162 599 z"/>
    <path id="Polygon 11" d="M 1020 649 L 1162 599 L 1091 750 L 942 789 L 1020 649 z"/>
    <path id="Polygon 10" d="M 941.383 519.37 L 1084.69 439.401 L 1162 599 L 1020 649 L 941.383 519.37 z"/>
    <path id="Polygon 9" d="M 883 670 L 941.383 519.37 L 1020 649 L 942 789 L 883 670 z"/>
    <path id="Polygon 8" d="M 734 602 L 883 670 L 942 789 L 810 751 L 734 602 z"/>
    <path id="Polygon 7" d="M 796.489 444.943 L 941.383 519.37 L 883 670 L 734 602 L 796.489 444.943 z"/>
    <path id="Polygon 6" d="M 796.489 444.943 L 931.882 365.767 L 1084.69 439.401 L 941.383 519.37 L 796.489 444.943 z"/>
    <path id="Polygon 5" d="M 658.722 475.031 L 795 448 L 734 602 L 624 643 L 658.722 475.031 z"/>
    <path id="Polygon 4" d="M 624 643 L 734 602 L 810 751 L 700 785 L 624 643 z"/>
    <path id="Polygon 3" d="M 480 562 L 624 643 L 703 784 L 588 746 L 480 562 z"/>
    <path id="Polygon 2" d="M 502.744 373.684 L 658.722 475.031 L 624 643 L 480 562 L 502.744 373.684 z"/>
    <path id="Polygon 1" d="M 503.535 372.892 L 654.763 477.406 L 800.448 445.735 L 670.598 351.515 L 503.535 372.892 z"/>
  </g>
</svg>
