<?xml version="1.0" encoding="UTF-8"?>

<!DOCTYPE svg PUBLIC "-//W3C//DTD SVG 1.1//EN" "http://www.w3.org/Graphics/SVG/1.1/DTD/svg11.dtd">
<svg version="1.1" xmlns="http://www.w3.org/2000/svg" width="1920"
     height="1080" viewport="0 0 1920 1080" stroke-width="1" stroke="#000000"
     fill="none">
  <g id="Template(Keep Unused.)">
    <polygon id="LR1-C4" points="1440,810,1920,810,1920,1080,1440,1080"/>
    <polygon id="MR1-C4" points="1440,540,1920,540,1920,810,1440,810"/>
    <polygon id="HR1-C4" points="1440,270,1920,270,1920,540,1440,540"/>
    <polygon id="MR2-C4" points="1440,-7.15256e-006,1920,-7.15256e-006,1920,270,1440,270"/>
    <polygon id="LR2-C4" points="960,810,1440,810,1440,1080,960,1080"/>
    <polygon id="LR3-C4" points="960,540,1440,540,1440,810,960,810"/>
    <polygon id="MR3-C4" points="960,270,1440,270,1440,540,960,540"/>
    <polygon id="MC-C4" points="960,-7.62939e-006,1440,-7.62939e-006,1440,270,960,270"/>
    <polygon id="LL3-C4" points="480,810,960,810,960,1080,480,1080"/>
    <polygon id="ML3-C4" points="480,540,960,540,960,810,480,810"/>
    <polygon id="HC-C4" points="480,270,960,270,960,540,480,540"/>
    <polygon id="ML2-C4" points="480,0,960,0,960,270,480,270"/>
    <polygon id="LL2-C4" points="0,810,480,810,480,1080,0,1080"/>
    <polygon id="LL1-C4" points="0,540,480,540,480,810,0,810"/>
    <polygon id="ML1-C4" points="0,270,480,270,480,540,0,540"/>
    <polygon id="HL1-C4" points="0,-3.64222e-007,480,-3.64222e-007,480,270,0,270"/>
    <polygon id="LR1-C3" points="1440,810,1920,810,1920,1080,1440,1080"/>
    <polygon id="MR1-C3" points="1440,540,1920,540,1920,810,1440,810"/>
    <polygon id="HR1-C3" points="1440,270,1920,270,1920,540,1440,540"/>
    <polygon id="MR2-C3" points="1440,-7.15256e-006,1920,-7.15256e-006,1920,270,1440,270"/>
    <polygon id="LR2-C3" points="960,810,1440,810,1440,1080,960,1080"/>
    <polygon id="LR3-C3" points="960,540,1440,540,1440,810,960,810"/>
    <polygon id="MR3-C3" points="960,270,1440,270,1440,540,960,540"/>
    <polygon id="MC-C3" points="960,-7.62939e-006,1440,-7.62939e-006,1440,270,960,270"/>
    <polygon id="LL3-C3" points="480,810,960,810,960,1080,480,1080"/>
    <polygon id="ML3-C3" points="480,540,960,540,960,810,480,810"/>
    <polygon id="HC-C3" points="480,270,960,270,960,540,480,540"/>
    <polygon id="ML2-C3" points="480,0,960,0,960,270,480,270"/>
    <polygon id="LL2-C3" points="0,810,480,810,480,1080,0,1080"/>
    <polygon id="LL1-C3" points="0,540,480,540,480,810,0,810"/>
    <polygon id="ML1-C3" points="0,270,480,270,480,540,0,540"/>
    <polygon id="HL1-C3" points="0,-3.64222e-007,480,-3.64222e-007,480,270,0,270"/>
    <polygon id="LR1-C2" points="1440,810,1920,810,1920,1080,1440,1080"/>
    <polygon id="MR1-C2" points="1440,540,1920,540,1920,810,1440,810"/>
    <polygon id="HR1-C2" points="1440,270,1920,270,1920,540,1440,540"/>
    <polygon id="MR2-C2" points="1440,-7.15256e-006,1920,-7.15256e-006,1920,270,1440,270"/>
    <polygon id="LR2-C2" points="960,810,1440,810,1440,1080,960,1080"/>
    <polygon id="LR3-C2" points="960,540,1440,540,1440,810,960,810"/>
    <polygon id="MR3-C2" points="960,270,1440,270,1440,540,960,540"/>
    <polygon id="MC-C2" points="960,-7.62939e-006,1440,-7.62939e-006,1440,270,960,270"/>
    <polygon id="LL3-C2" points="480,810,960,810,960,1080,480,1080"/>
    <polygon id="ML3-C2" points="480,540,960,540,960,810,480,810"/>
    <polygon id="HC-C2" points="480,270,960,270,960,540,480,540"/>
    <polygon id="ML2-C2" points="480,0,960,0,960,270,480,270"/>
    <polygon id="LL2-C2" points="0,810,480,810,480,1080,0,1080"/>
    <polygon id="LL1-C2" points="0,540,480,540,480,810,0,810"/>
    <polygon id="ML1-C2" points="0,270,480,270,480,540,0,540"/>
    <polygon id="HL1-C2" points="0,-3.64222e-007,480,-3.64222e-007,480,270,0,270"/>
    <polygon id="LR1-C1" points="1440,810,1920,810,1920,1080,1440,1080"/>
    <polygon id="MR1-C1" points="1440,540,1920,540,1920,810,1440,810"/>
    <polygon id="HR1-C1" points="1440,270,1920,270,1920,540,1440,540"/>
    <polygon id="MR2-C1" points="1440,-7.15256e-006,1920,-7.15256e-006,1920,270,1440,270"/>
    <polygon id="LR2-C1" points="960,810,1440,810,1440,1080,960,1080"/>
    <polygon id="LR3-C1" points="960,540,1440,540,1440,810,960,810"/>
    <polygon id="MR3-C1" points="960,270,1440,270,1440,540,960,540"/>
    <polygon id="MC-C1" points="960,-7.62939e-006,1440,-7.62939e-006,1440,270,960,270"/>
    <polygon id="LL3-C1" points="480,810,960,810,960,1080,480,1080"/>
    <polygon id="ML3-C1" points="480,540,960,540,960,810,480,810"/>
    <polygon id="HC-C1" points="480,270,960,270,960,540,480,540"/>
    <polygon id="ML2-C1" points="480,0,960,0,960,270,480,270"/>
    <polygon id="LL2-C1" points="0,810,480,810,480,1080,0,1080"/>
    <polygon id="LL1-C1" points="0,540,480,540,480,810,0,810"/>
    <polygon id="ML1-C1" points="0,270,480,270,480,540,0,540"/>
    <polygon id="HL1-C1" points="0,-3.64222e-007,480,-3.64222e-007,480,270,0,270"/>
  </g>
</svg>
