<?xml version="1.0" encoding="UTF-8"?>

<!DOCTYPE svg PUBLIC "-//W3C//DTD SVG 1.1//EN" "http://www.w3.org/Graphics/SVG/1.1/DTD/svg11.dtd">
<svg version="1.1" xmlns="http://www.w3.org/2000/svg" width="1920"
     height="1080" viewport="0 0 1920 1080" stroke-width="1" stroke="#000000"
     fill="none">
  <g id="Horizontal Map">
    <polygon id="LR1-C2" points="1274.76,635.459,1422.45,545.809,1318.69,735.983,1202.92,786.698"/>
    <polygon id="MR1-C2" points="1229.96,466.404,1357.18,354.031,1422.15,547.591,1272.68,637.598"/>
    <polygon id="HR1-C2" points="1197.16,336.177,1357.36,353.016,1227.74,467.924,1085.28,438.261"/>
    <polygon id="MR2-C2" points="1085.41,439.19,1228.98,467.221,1271.56,636.033,1156.89,605.656"/>
    <polygon id="LR2-C2" points="1156.41,603.047,1273.06,634.109,1200.74,784.247,1090.12,749.681"/>
    <polygon id="LR3-C2" points="1018.48,650.977,1157.57,601.622,1087.08,750.706,946.84,785.853"/>
    <polygon id="MR-C2" points="940.929,517.724,1085.42,437.631,1155.27,601.456,1018.13,650.972"/>
    <polygon id="MC-C2" points="916.604,586.155,942.37,521.658,942.37,521.658,983.237,590.605,1018.06,650.213,1018.06,650.213,989.569,706.863,944.937,785.003,944.937,785.003,910.594,721.442,885.012,668.77,885.012,668.77"/>
    <polygon id="LL3-C2" points="733.458,604.819,883.359,667.786,942.206,784.017,810.405,756.295"/>
    <polygon id="ML3-C2" points="793.451,450.077,944.142,513.506,885.936,668.679,736.721,604.095"/>
    <polygon id="HC-C2" points="857.891,407.666,918.406,374.071,918.406,374.071,986.242,400.79,1083.71,438.338,1083.71,438.338,1001.23,485.525,944.302,516.058,944.302,516.058,861.588,477.66,795.734,450.07,795.734,450.07"/>
    <polygon id="ML2-C2" points="657.131,475.415,797.547,447.074,736.225,602.963,625.148,642.887"/>
    <polygon id="LL2-C2" points="626.631,643.701,737.845,603.163,809.302,752.286,700.85,781.563"/>
    <polygon id="LL1-C2" points="480.146,561.906,624.583,644.237,702.289,787.672,604.269,764.137"/>
    <polygon id="ML1-C2" points="501.968,375.951,658.617,475.145,624.678,641.812,481.053,560.493"/>
    <polygon id="HL1-C2" points="595.704,363.659,674.365,351.511,674.365,351.511,729.404,394.488,793.496,447.402,793.496,447.402,726.687,458.906,662.062,476.115,662.062,476.115,565.045,416.41,505.626,376.787,505.626,376.787"/>
    <polygon id="LR1-C1" points="1274.14,637.076,1422.34,547.608,1318.69,735.983,1202.89,786.202"/>
    <polygon id="MR1-C1" points="1229.03,467.593,1356.39,353.572,1421.81,547.737,1273.12,636.831"/>
    <polygon id="HR1-C1" points="1195.75,337.667,1356.2,353.506,1228.62,468.075,1085.28,438.261"/>
    <polygon id="MR2-C1" points="1087.22,439.783,1228.98,467.221,1271.52,635.914,1157.6,606.061"/>
    <polygon id="LR2-C1" points="1153.62,602.349,1273.75,636.73,1202.75,786.31,1085.85,752.999"/>
    <polygon id="LR3-C1" points="1156.45,601.633,1016.91,652.446,946.674,787.274,1086.78,751.239"/>
    <polygon id="MR-C1" points="1085,438.605,1157.12,601.441,1018.22,651.636,943.086,519.833"/>
    <polygon id="MC-C1" points="913.843,602.54,941.856,518.265,941.856,518.265,979.086,587.151,1016.98,650.544,1016.98,650.544,980.938,724.658,944.592,787.948,944.592,787.948,911.443,729.013,884.13,669.144,884.13,669.144"/>
    <polygon id="LL3-C1" points="738.564,604.709,880.278,668.152,944.669,787.85,808.1,749.556"/>
    <polygon id="ML3-C1" points="796.972,446.395,941.623,518.419,882.929,668.852,736.161,602.351"/>
    <polygon id="HC-C1" points="933.843,364.679,1083.34,438.66,944.066,519.288,796.729,446.705"/>
    <polygon id="ML2-C1" points="657.131,475.415,797.547,447.074,736.225,602.963,625.148,642.887"/>
    <polygon id="LL2-C1" points="624.522,643.029,736.651,603.518,808.266,750.703,700.702,782.058"/>
    <polygon id="LL1-C1" points="480.992,560.916,623.353,642.164,699.454,782.366,589.605,742.668"/>
    <polygon id="ML1-C1" points="657.813,474.326,626.456,643.835,481.183,561.005,502.066,373.607"/>
    <polygon id="HL1-C1" points="673.206,352.547,797.323,446.061,658.146,473.869,503.272,374.953"/>
  </g>
</svg>
